<svg version="1.2" baseProfile="tiny-ps" xmlns="http://www.w3.org/2000/svg" viewBox="0 0 1267 600" width="1267" height="600">
	<title>33467679</title>
	<style>
		tspan { white-space:pre }
		.shp0 { opacity: 0.333;fill: #36484e } 
		.shp1 { fill: #37474f } 
		.shp2 { opacity: 0.671;fill: #37484f } 
	</style>
	<g id="Background">
		<path id="Path 0" class="shp0" d="M-0.51 300C-0.51 465.28 -0.39 532.78 -0.25 450C-0.11 367.23 -0.11 232 -0.25 149.5C-0.39 67 -0.51 134.72 -0.51 300Z" />
		<path id="Path 1" class="shp1" d="M0 300L0 600L99 600L99 0L0 0L0 300Z" />
		<path id="Path 2" class="shp2" d="M99.49 300C99.49 465.28 99.61 532.78 99.75 450C99.89 367.23 99.89 232 99.75 149.5C99.61 67 99.49 134.72 99.49 300ZM166.49 300C166.49 465.28 166.61 532.78 166.75 450C166.89 367.23 166.89 232 166.75 149.5C166.61 67 166.49 134.72 166.49 300Z" />
		<path id="Path 3" class="shp1" d="M167 300L167 600L266 600L266 0L167 0L167 300Z" />
		<path id="Path 4" class="shp0" d="M266.49 300C266.49 465.28 266.61 532.78 266.75 450C266.89 367.23 266.89 232 266.75 149.5C266.61 67 266.49 134.72 266.49 300Z" />
		<path id="Path 5" class="shp1" d="M333 300L333 600L433 600L433 0L333 0L333 300Z" />
		<path id="Path 6" class="shp0" d="M499.49 300C499.49 465.28 499.61 532.78 499.75 450C499.89 367.23 499.89 232 499.75 149.5C499.61 67 499.49 134.72 499.49 300Z" />
		<path id="Path 7" class="shp1" d="M500 300L500 600L599 600L599 0L500 0L500 300Z" />
		<path id="Path 8" class="shp2" d="M599.49 300C599.49 465.28 599.61 532.78 599.75 450C599.89 367.23 599.89 232 599.75 149.5C599.61 67 599.49 134.72 599.49 300ZM666.46 50C666.46 77.77 666.59 89.02 666.75 75C666.91 60.98 666.91 38.25 666.75 24.5C666.59 10.75 666.46 22.23 666.46 50Z" />
		<path id="Path 9" class="shp1" d="M667 50L667 100L1266 100L1266 0L667 0L667 50Z" />
		<path id="Path 10" class="shp0" d="M1266.46 50C1266.46 77.77 1266.59 89.02 1266.75 75C1266.91 60.98 1266.91 38.25 1266.75 24.5C1266.59 10.75 1266.46 22.23 1266.46 50ZM966.25 166.75L1266 167L1266.53 265.5L1266.5 166.5L666.5 166.5L966.25 166.75Z" />
		<path id="Path 11" class="shp2" d="M666.49 216.75L666.5 266.5L1266.5 266.5L667 266L666.47 167L666.49 216.75Z" />
		<path id="Path 12" class="shp1" d="M667 216.5L667 266L1266 266L1266 167L667 167L667 216.5Z" />
		<path id="Path 13" class="shp2" d="M666.46 334.25C666.2 334.94 666.1 357.55 666.25 384.5L666.52 433.5L667 334L1266.5 333.5C727.65 333.05 666.85 333.25 666.46 334.25Z" />
		<path id="Path 14" class="shp1" d="M667 383.5L667 433L1266 433L1266 334L667 334L667 383.5Z" />
		<path id="Path 15" class="shp0" d="M1266.24 383.25L1266 433L666.5 433.5C1205.3 433.95 1266.1 433.75 1266.51 432.75C1266.79 432.06 1266.9 409.45 1266.75 382.5L1266.48 333.5L1266.24 383.25Z" />
		<path id="Path 16" class="shp2" d="M666.46 550C666.46 577.78 666.59 589.03 666.75 575C666.91 560.97 666.91 538.25 666.75 524.5C666.59 510.75 666.46 522.23 666.46 550Z" />
		<path id="Path 17" class="shp1" d="M667 550L667 600L1266 600L1266 500L667 500L667 550Z" />
		<path id="Path 18" class="shp0" d="M1266.46 550C1266.46 577.78 1266.59 589.03 1266.75 575C1266.91 560.97 1266.91 538.25 1266.75 524.5C1266.59 510.75 1266.46 522.23 1266.46 550Z" />
	</g>
</svg>