<svg version="1.2" baseProfile="tiny-ps" xmlns="http://www.w3.org/2000/svg" viewBox="0 0 512 512" width="512" height="512">
	<title>33467679</title>
	<style>
		tspan { white-space:pre }
		.shp0 { opacity: 0.502;fill: #919a9e } 
		.shp1 { fill: #655561 } 
		.shp2 { fill: #ffffff } 
		.shp3 { fill: #7d929e } 
	</style>
	<g id="Background">
		<path id="Path 0" class="shp0" d="M64 16L64 32L32 32L32 64L64 64L64 32L96 32L96 0L64 0L64 16Z" />
		<path id="Path 1" class="shp1" d="M96 16L96 32L64 32L64 64L32 64L32 416L64 416L64 448L96 448L96 480L416 480L416 448L448 448L448 416L480 416L480 64L448 64L448 32L416 32L416 0L96 0L96 16Z" />
		<path id="Path 2" class="shp0" d="M416 16L416 32L448 32L448 64L480 64L480 32L448 32L448 0L416 0L416 16Z" />
		<path id="Path 3" class="shp2" d="M96 48L96 64L64 64L64 352L96 352L96 384L416 384L416 352L448 352L448 64L416 64L416 32L96 32L96 48Z" />
		<path id="Path 4" class="shp1" d="M416 48L416 64L448 64L448 416L416 416L416 448L448 448L448 416L480 416L480 64L448 64L448 32L416 32L416 48ZM160 192L160 256L192 256L192 128L160 128L160 192ZM320 192L320 256L352 256L352 128L320 128L320 192Z" />
		<path id="Path 5" class="shp3" d="M64 384L64 416L96 416L96 448L416 448L416 416L448 416L448 352L416 352L416 384L96 384L96 352L64 352L64 384Z" />
		<path id="Path 6" class="shp0" d="M32 432L32 448L64 448L64 480L96 480L96 448L64 448L64 416L32 416L32 432ZM448 432L448 448L416 448L416 480L448 480L448 448L480 448L480 416L448 416L448 432Z" />
	</g>
</svg>