<?xml version="1.0" encoding="UTF-8" standalone="no"?>
<!-- Created with Inkscape (http://www.inkscape.org/) -->

<svg
   version="1.1"
   id="svg603"
   width="256"
   height="256"
   viewBox="0 0 256 256"
   sodipodi:docname="COLLAB.svg"
   inkscape:version="1.1 (c68e22c387, 2021-05-23)"
   xmlns:inkscape="http://www.inkscape.org/namespaces/inkscape"
   xmlns:sodipodi="http://sodipodi.sourceforge.net/DTD/sodipodi-0.dtd"
   xmlns="http://www.w3.org/2000/svg"
   xmlns:svg="http://www.w3.org/2000/svg">
  <defs
     id="defs607" />
  <sodipodi:namedview
     id="namedview605"
     pagecolor="#505050"
     bordercolor="#eeeeee"
     borderopacity="1"
     inkscape:pageshadow="0"
     inkscape:pageopacity="0"
     inkscape:pagecheckerboard="0"
     showgrid="false"
     inkscape:zoom="1.5859375"
     inkscape:cx="-6.3054187"
     inkscape:cy="206.50246"
     inkscape:window-width="1920"
     inkscape:window-height="1001"
     inkscape:window-x="-9"
     inkscape:window-y="-9"
     inkscape:window-maximized="1"
     inkscape:current-layer="g609" />
  <g
     inkscape:groupmode="layer"
     inkscape:label="Image"
     id="g609">
    <g
       id="g2228"
       transform="translate(-1.2610872,-15.763548)">
      <path
         style="fill:#fdf9f4"
         d="M 56.229512,199.9849 C 43.459557,196.63899 33.718961,190.80341 22.943161,180.0431 14.737248,171.84898 12.732659,169.15711 8.7621247,161 2.4820464,148.09814 0.62761728,139.01259 1.2430893,124.16139 2.1039919,103.38801 8.1929683,89.801951 23.566125,74.352989 c 7.746192,-7.784388 10.504803,-9.82742 18.518002,-13.71446 11.989368,-5.8158 19.736435,-7.605227 33.00591,-7.623748 16.055254,-0.02241 33.568763,5.354922 43.352083,13.310778 l 2.94211,2.392549 -9.35132,16.012812 -9.35133,16.01281 -4.306406,-3.287149 C 90.974358,91.80741 83.91455,89.750534 73.444003,90.19288 61.807716,90.684475 55.433943,93.603738 47.657214,102.00353 39.32643,111.00177 35.798542,122.65826 37.973338,134 c 5.454779,28.44713 37.535054,40.76063 60.782547,23.3304 1.790735,-1.34264 3.643475,-2.20162 4.117185,-1.90885 0.92001,0.5686 16.56975,26.95608 17.63341,29.73221 1.24225,3.24222 -15.36666,12.42176 -27.763982,15.34482 -9.035103,2.1303 -27.408548,1.87182 -36.512986,-0.51368 z M 165.5,200.97545 C 151.73146,198.2031 139.41465,191.37748 128.51859,180.48141 113.59862,165.56145 106.03473,147.73774 106.03473,127.5 c 0,-19.92053 7.47083,-37.794007 21.96527,-52.550508 8.52659,-8.68075 17.79111,-14.534014 29.5,-18.637914 7.48666,-2.624031 8.99459,-2.799615 23.5,-2.736343 14.17279,0.06182 16.13115,0.295388 22.87091,2.727738 12.21413,4.408025 19.9423,9.329175 29.21962,18.606498 9.27449,9.274492 14.40256,17.328243 18.72023,29.400549 2.32794,6.50896 2.57708,8.65811 2.63037,22.68998 0.0519,13.66949 -0.21807,16.33965 -2.28613,22.60982 -8.21095,24.89485 -28.46399,44.20316 -52.92931,50.46034 -7.97024,2.03844 -25.73041,2.51518 -33.72569,0.90529 z M 194,161.70142 c 7.85242,-2.88186 17.86744,-13.02585 20.93187,-21.20142 3.0669,-8.18214 3.09759,-19.74325 0.0738,-27.78458 -2.7846,-7.40515 -11.27094,-16.730964 -18.32806,-20.141084 -19.33991,-9.345355 -42.41243,-1.171664 -51.5172,18.250514 -2.32484,4.95932 -2.66041,6.93649 -2.66041,15.67515 0,8.73866 0.33557,10.71583 2.66041,15.67515 8.65904,18.47136 29.26566,26.70997 48.83959,19.52627 z"
         id="path2326" />
      <path
         style="fill:#fcf5ea"
         d="M 57.5,200.44886 C 54.2,199.62067 47.262857,196.88453 42.084127,194.36854 34.078498,190.47916 31.304999,188.42405 23.566125,180.64701 13.376096,170.40674 8.2722016,162.43699 4.25971,150.5 c -2.443747,-7.27004 -2.689114,-9.36867 -2.689114,-23 0,-13.63133 0.245367,-15.72996 2.689114,-23 3.9197457,-11.661077 9.129256,-19.88926 18.734655,-29.590529 9.258301,-9.350708 17.004714,-14.277717 29.134725,-18.530782 10.827229,-3.796278 29.105865,-4.473141 40.817617,-1.511487 8.777283,2.219589 20.518093,7.509405 25.472133,11.476462 l 2.91884,2.337324 -8.83694,15.20438 c -4.86031,8.362408 -9.20864,15.434107 -9.66295,15.714885 -0.45431,0.280779 -2.29117,-0.588015 -4.081905,-1.930652 -15.639673,-11.726128 -36.86625,-10.401341 -50.414016,3.146429 -8.381167,8.38116 -12.694021,21.82594 -10.502269,32.73948 3.430184,17.08014 15.200512,28.75636 31.71155,31.458 9.963681,1.63032 23.558028,-2.06695 30.124822,-8.19309 1.196788,-1.11648 2.587288,-1.77575 3.089998,-1.46506 0.50271,0.3107 4.89558,7.39778 9.76192,15.74909 l 8.84789,15.18418 -2.89929,2.31182 c -4.43308,3.53481 -11.68774,7.24094 -19.712584,10.0704 -6.16071,2.17219 -9.390137,2.61604 -21.263906,2.92248 -10.178196,0.26269 -15.637916,-0.0497 -20,-1.14447 z m 104.61197,-0.49381 c -34.51443,-9.03886 -58.0089,-41.2372 -55.78769,-76.45505 0.72424,-11.48291 2.70217,-18.98706 7.64377,-29 9.91464,-20.089578 27.28006,-34.11873 49.04538,-39.622718 6.9446,-1.756143 10.34479,-2.028287 20.4097,-1.63355 20.91019,0.820081 34.70215,6.870276 49.58251,21.750633 9.58225,9.582253 14.79971,17.799348 18.73465,29.505635 2.44375,7.27004 2.68911,9.36867 2.68911,23 0,13.63133 -0.24536,15.72996 -2.68911,23 -4.01249,11.93699 -9.11639,19.90674 -19.30642,30.14701 -7.74619,7.78439 -10.5048,9.82742 -18.518,13.71446 -5.17873,2.5121 -12.34087,5.25179 -15.91587,6.08821 -9.29545,2.17479 -26.60602,1.93621 -35.88803,-0.49463 z m 30.14976,-37.60746 c 2.61896,-0.83386 7.06084,-3.24363 9.87086,-5.35504 18.62093,-13.99149 20.64217,-40.71957 4.33051,-57.264935 C 187.99995,80.999927 156.47348,86.686716 145.18006,110.78193 142.83319,115.78912 142.5,117.74322 142.5,126.5 c 0,8.86334 0.32098,10.69454 2.82391,16.11039 8.09981,17.5264 27.82756,25.82186 46.93782,19.7372 z"
         id="path2324" />
      <path
         style="fill:#fcf4e3"
         d="M 60.489906,200.98354 C 46.51299,198.20448 34.057579,191.26416 22.994365,180.09053 13.388966,170.38926 8.1794557,162.16108 4.25971,150.5 1.8255922,143.2586 1.5672488,141.07762 1.535298,127.5 1.5015888,113.17515 1.6410947,112.10566 4.6347352,103.73879 9.0611633,91.367442 13.250514,84.814905 23,75.013787 37.803389,60.132003 51.618121,54.065717 72.576873,53.243732 c 10.064908,-0.394737 13.465092,-0.122593 20.409698,1.63355 8.722069,2.205627 20.483619,7.503568 25.401949,11.442209 l 2.88853,2.313151 -8.09541,13.933679 C 101.84258,102.08291 102.99725,100.85363 98.895214,97.775872 86.645897,88.585206 71.65708,87.019039 58.333571,93.537624 43.61256,100.73994 34.95241,117.76353 37.892426,133.71957 c 3.079309,16.71201 14.611396,28.22315 31.380003,31.32299 9.903233,1.83072 22.26336,-1.41529 29.919376,-7.85741 3.701275,-3.11442 2.644625,-4.25973 14.037265,15.2152 l 8.13156,13.90036 -2.93031,2.38314 c -4.79461,3.89931 -16.38539,9.17992 -24.840283,11.3169 -8.307719,2.09978 -24.991024,2.59513 -33.100131,0.98279 z M 162.5,200.09798 C 148.36484,196.22952 136.29558,189.23519 127.24841,179.66914 89.074429,139.30578 104.97642,74.70346 157.60985,56.324868 c 7.25136,-2.532036 9.10456,-2.755593 22.89015,-2.761299 13.65466,-0.0057 15.71752,0.235571 23,2.689524 11.70933,3.94565 19.92416,9.169505 29.5,18.759214 9.72185,9.735929 13.92006,16.302659 18.36526,28.726483 2.99365,8.36687 3.13315,9.43636 3.09944,23.76121 -0.0319,13.57762 -0.29029,15.7586 -2.72441,23 -3.91975,11.66108 -9.12926,19.88926 -18.73465,29.59053 -9.24864,9.34095 -17.31235,14.47188 -29.31566,18.65355 -10.07949,3.51145 -30.81588,4.19305 -41.18998,1.3539 z m 29.87111,-37.71252 c 9.95202,-3.47177 19.52784,-13.01827 22.97599,-22.90563 7.96131,-22.82857 -6.05181,-46.357119 -30.13601,-50.599467 C 169.6347,86.136637 153.03444,94.924459 145.31594,110 c -2.58392,5.04683 -2.81594,6.40634 -2.81594,16.5 0,10.12268 0.22831,11.4505 2.86253,16.64843 5.25744,10.37415 16.51123,18.92356 27.47174,20.87008 5.66467,1.00601 13.95931,0.31267 19.53684,-1.63305 z"
         id="path2322" />
      <path
         style="fill:#fbede2"
         d="M 57,199.96123 C 43.682327,196.53655 33.688408,190.73771 23.499748,180.52314 13.298358,170.29581 9.1342048,163.8367 4.6347352,151.26121 1.6504638,142.92053 1.5,141.78002 1.5,127.5 1.5,113.21998 1.6504638,112.07947 4.6347352,103.73879 9.0799391,91.314966 13.278147,84.748236 23,75.012307 37.875574,60.115195 51.656384,54.064216 72.576873,53.243732 c 10.064908,-0.394737 13.465092,-0.122593 20.409698,1.63355 8.722069,2.205627 20.483619,7.503568 25.401949,11.442209 l 2.88853,2.313151 -8.09541,13.933679 C 108.72916,90.229844 104.42809,97.4 103.62371,98.5 c -1.45667,1.992 -1.47185,1.99129 -3.793118,-0.175188 -3.703633,-3.456673 -11.799403,-7.065262 -18.598828,-8.290195 -15.577147,-2.806261 -32.455507,5.60638 -39.62195,19.748673 -7.56694,14.93264 -4.780093,33.09906 6.86387,44.74303 13.095792,13.09579 34.837962,14.75203 49.249263,3.75164 5.487903,-4.18901 3.901433,-5.63166 15.415043,14.01768 l 8.21152,14.01394 -2.92476,2.34204 c -4.83286,3.86998 -16.54303,9.2047 -24.892735,11.34019 C 83.125897,202.65325 67.417419,202.6401 57,199.96123 Z m 105.07719,0.0469 C 135.94516,192.9475 115.59396,172.48786 108.3553,146 c -2.4393,-8.92595 -2.4393,-28.07405 0,-37 5.99688,-21.943909 20.36157,-39.100362 41.1447,-49.141155 11.21834,-5.419828 20.306,-7.158452 34.5,-6.600433 20.11789,0.79091 34.34054,7.106744 48.98769,21.753895 9.73068,9.730674 13.92896,16.29312 18.37757,28.726483 2.99365,8.36687 3.13315,9.43636 3.09944,23.76121 -0.0319,13.57762 -0.29029,15.7586 -2.72441,23 -3.91975,11.66108 -9.12926,19.88926 -18.73465,29.59053 -9.25122,9.34355 -16.98522,14.26505 -29.13473,18.53977 -10.42558,3.66817 -30.82766,4.34078 -41.79372,1.37784 z m 30.29392,-37.62268 c 6.5488,-2.28456 14.18266,-8.08853 18.02932,-13.70757 5.19755,-7.59237 6.85257,-12.94871 6.85257,-22.17789 0,-9.22918 -1.65502,-14.58552 -6.85257,-22.17789 C 206.5211,98.655339 199.02222,92.981941 192,90.400957 c -6.76893,-2.487888 -19.08134,-2.234872 -26.28458,0.540138 -7.57168,2.916951 -16.38146,11.059885 -20.26508,18.731135 -2.73511,5.40264 -2.95034,6.63021 -2.95034,16.82777 0,10.17213 0.21976,11.43393 2.91993,16.76565 8.70215,17.18317 28.91149,25.41296 46.95118,19.11981 z"
         id="path2320" />
      <path
         style="fill:#fdf1d8"
         d="M 57,199.96123 C 43.625813,196.52202 33.682037,190.75316 23.5,180.52629 13.27522,170.25648 9.1118315,163.79268 4.650125,151.26121 1.6822688,142.92548 1.5314005,141.77153 1.5435662,127.5 1.5553288,113.70135 1.7789701,111.85928 4.3359428,104.5 8.4599176,92.630696 14.226677,83.56593 23.421134,74.5 38.076668,60.049331 51.943456,54.052958 72.576873,53.243732 c 10.064908,-0.394737 13.465092,-0.122593 20.409698,1.63355 8.722069,2.205627 20.483619,7.503568 25.401949,11.442209 l 2.88853,2.313151 -8.09541,13.933679 C 108.72916,90.229844 104.42809,97.4 103.62371,98.5 c -1.45667,1.992 -1.47185,1.99129 -3.793118,-0.175188 C 93.088979,92.03273 78.995845,88.159965 69.33758,89.945392 43.819675,94.662633 30.108036,120.80503 41.034146,143.90828 c 10.111225,21.38018 38.182572,28.4958 56.688801,14.36968 5.487903,-4.18901 3.901433,-5.63166 15.415043,14.01768 l 8.21152,14.01394 -2.92476,2.34204 c -4.83286,3.86998 -16.54303,9.2047 -24.892735,11.34019 C 83.125897,202.65325 67.417419,202.6401 57,199.96123 Z m 105.07719,-0.015 C 136.16197,193.16034 115.60097,172.51348 108.3553,146 c -2.4393,-8.92595 -2.4393,-28.07405 0,-37 5.99688,-21.943909 20.36157,-39.100362 41.1447,-49.141155 11.21834,-5.419828 20.306,-7.158452 34.5,-6.600433 19.8231,0.779321 34.11635,7.031548 48.56049,21.241588 9.20243,9.053283 14.95344,18.077281 19.11906,30 2.57698,7.37576 2.79607,9.17046 2.80776,23 0.0121,14.2962 -0.13439,15.41108 -3.12205,23.76121 -4.49115,12.55224 -8.65201,19.00685 -18.86526,29.26508 -10.30195,10.34731 -20.22863,16.05201 -33.90996,19.48747 -10.53662,2.64581 -26.26168,2.61672 -36.51285,-0.0675 z m 31.06283,-37.90743 c 15.12967,-5.74882 24.15824,-19.0306 24.15824,-35.53879 0,-16.67572 -8.90119,-29.624917 -24.57906,-35.756906 -7.37511,-2.884583 -19.22775,-2.797676 -27.00378,0.198001 -7.57168,2.916951 -16.38146,11.059885 -20.26508,18.731135 -2.73511,5.40264 -2.95034,6.63021 -2.95034,16.82777 0,10.17213 0.21976,11.43393 2.91993,16.76565 5.19984,10.26755 15.74097,18.40625 26.84977,20.73043 5.60766,1.17324 14.93316,0.29866 20.87032,-1.95729 z"
         id="path2318" />
      <path
         style="fill:#fbe9d8"
         d="M 57.111967,199.95505 C 42.462844,196.11865 31.187424,189.33929 20.90928,178.18814 12.881091,169.47805 8.6286208,162.4355 4.650125,151.26121 1.6822688,142.92548 1.5314005,141.77153 1.5435662,127.5 1.5553288,113.70135 1.7789701,111.85928 4.3359428,104.5 8.4694763,92.603185 14.224341,83.565819 23.439513,74.5 32.963535,65.130337 39.699578,60.902943 51.738785,56.739995 62.883983,52.886181 79.205735,51.905153 91,54.380179 c 7.218276,1.514755 22.84562,8.492291 27.86611,12.442088 l 2.36612,1.861504 -8.7076,14.908115 c -4.78917,8.199463 -9.0637,15.282888 -9.49894,15.740946 -0.43524,0.458057 -2.84622,-0.735687 -5.357731,-2.652764 -14.417355,-11.005015 -36.065001,-9.335657 -49.194275,3.793612 -14.721362,14.72137 -14.77515,39.27749 -0.118138,53.9345 13.440757,13.44076 35.599465,14.99892 49.897492,3.50871 2.156202,-1.73277 4.286582,-2.75848 4.739932,-2.28213 0.4529,0.47588 4.76032,7.57884 9.57205,15.78434 l 8.74859,14.9191 -2.9068,2.32773 c -4.8163,3.85683 -16.53696,9.19342 -24.874795,11.32588 -10.429594,2.66744 -26.154797,2.65157 -36.420048,-0.0368 z m 104.965223,-0.009 c -20.9547,-5.48697 -38.3984,-19.81181 -48.03461,-39.44622 -5.83951,-11.8984 -7.42674,-18.9511 -7.42674,-33 0,-13.62538 1.55862,-20.87786 6.87707,-32 7.4513,-15.582444 19.2035,-27.32708 35.00709,-34.984566 12.37636,-5.996855 21.84509,-7.915884 35.89666,-7.275185 19.34682,0.882143 34.74897,7.739771 48.68614,21.676948 8.66574,8.665734 14.57031,18.05844 18.59675,29.582803 2.57698,7.37576 2.79607,9.17046 2.80776,23 0.0121,14.2962 -0.13439,15.41108 -3.12205,23.76121 -4.49115,12.55224 -8.65201,19.00685 -18.86526,29.26508 -10.30195,10.34731 -20.22863,16.05201 -33.90996,19.48747 -10.53662,2.64581 -26.26168,2.61672 -36.51285,-0.0675 z m 31.06283,-37.90743 c 15.1337,-5.75035 24.16402,-19.0377 24.1528,-35.53879 -0.0117,-17.18691 -9.52178,-30.607843 -25.64334,-36.188633 -7.30599,-2.529112 -18.5047,-2.262965 -25.93406,0.616345 -7.62836,2.956435 -16.73855,11.383118 -20.42731,18.894718 -2.53774,5.16773 -2.78811,6.66535 -2.78811,16.67757 0,13.20943 1.60263,17.55618 9.58462,25.99596 10.81538,11.43567 26.48707,15.07836 41.0554,9.54283 z"
         id="path2316" />
      <path
         style="fill:#fdecca"
         d="M 57.111967,199.95505 C 25.255582,191.6123 2.8134334,164.28414 1.2457385,131.92586 0.12114686,108.71352 7.149426,90.52877 23.440427,74.5 32.9631,65.130611 39.699097,60.903109 51.738785,56.739995 62.883983,52.886181 79.205735,51.905153 91,54.380179 c 7.218276,1.514755 22.84562,8.492291 27.86611,12.442088 l 2.36612,1.861504 -8.7076,14.908115 c -4.78917,8.199463 -9.0637,15.282888 -9.49894,15.740946 -0.43524,0.458057 -2.84622,-0.735687 -5.357731,-2.652764 -7.905621,-6.034497 -19.531358,-8.676715 -29.298689,-6.658806 -12.602457,2.60364 -22.185443,10.140628 -27.689894,21.778028 -2.8303,5.98376 -3.169949,7.66923 -3.174396,15.75257 -0.0047,8.46115 0.241564,9.55071 3.772949,16.69599 5.632307,11.39619 14.422571,18.11349 27.142335,20.74147 10.030932,2.07246 21.977408,-0.75968 29.832774,-7.07243 2.156202,-1.73277 4.286582,-2.75848 4.739932,-2.28213 0.4529,0.47588 4.76032,7.57884 9.57205,15.78434 l 8.74859,14.9191 -2.9068,2.32773 c -4.8163,3.85683 -16.53696,9.19342 -24.874795,11.32588 -10.429594,2.66744 -26.154797,2.65157 -36.420048,-0.0368 z m 106.913773,0.5388 c -20.70103,-4.66738 -40.36686,-20.38237 -49.94513,-39.91122 -5.87925,-11.98702 -7.46477,-19.01377 -7.46477,-33.08263 0,-13.62538 1.55862,-20.87786 6.87707,-32 7.4513,-15.582444 19.2035,-27.32708 35.00709,-34.984566 12.37636,-5.996855 21.84509,-7.915884 35.89666,-7.275185 19.34682,0.882143 34.74897,7.739771 48.68614,21.676948 8.67879,8.678784 14.58566,18.082987 18.58126,29.582803 2.56036,7.36903 2.77959,9.18307 2.77959,23 0,13.81693 -0.21923,15.63097 -2.77959,23 -4.09479,11.78529 -9.90679,20.92539 -19.07829,30.00299 -14.80342,14.65186 -28.68816,20.56559 -49.58577,21.11935 -8.45116,0.22394 -14.59706,-0.14158 -18.97426,-1.12849 z m 23.17504,-36.61823 c 15.59212,-3.3083 26.70954,-14.76556 29.85845,-30.77115 3.0198,-15.34935 -5.40211,-33.137128 -18.96546,-40.056634 -15.41566,-7.86448 -31.78651,-5.781698 -44.09024,5.609378 -3.62252,3.353816 -7.01144,7.695316 -8.71542,11.165216 -2.53774,5.16773 -2.78811,6.66535 -2.78811,16.67757 0,13.20943 1.60263,17.55618 9.58462,25.99596 9.48425,10.02819 22.14659,14.13152 35.11616,11.37966 z"
         id="path2314" />
      <path
         style="fill:#fdeac3"
         d="M 57.5,200.04855 C 43.157941,196.27593 31.241171,189.26381 21.329943,178.76522 7.9037744,164.54339 1.0347272,147.19234 1.0347272,127.5 c 0,-12.67599 2.0865726,-21.32424 8.0626103,-33.417193 C 13.391177,85.393903 15.593645,82.308667 22.372627,75.486667 36.939455,60.827401 51.976146,54.091539 72,53.255503 c 9.443218,-0.394273 13.085102,-0.100924 20.362716,1.640192 8.239014,1.971125 21.034694,7.738438 26.451494,11.922311 l 2.31422,1.787471 -8.65116,14.947262 c -4.75814,8.220993 -9.02389,15.336619 -9.47945,15.8125 -0.45722,0.477611 -2.58289,-0.544789 -4.744782,-2.282134 -18.545285,-14.903397 -47.004429,-7.629064 -57.573662,14.716185 -2.8303,5.98376 -3.169949,7.66923 -3.174396,15.75257 -0.0047,8.46115 0.241564,9.55071 3.772949,16.69599 4.399804,8.90239 9.23089,13.57348 18.722071,18.10203 11.727949,5.59578 27.230382,3.93723 37.667959,-4.02995 2.511511,-1.91708 4.922491,-3.11082 5.357731,-2.65276 0.43524,0.45806 4.70977,7.54148 9.49894,15.74094 l 8.7076,14.90812 -2.36612,1.90852 c -4.58213,3.69599 -20.44638,10.80591 -27.36611,12.26476 -9.707478,2.04656 -25.312817,1.84417 -34,-0.44096 z m 111,1.35987 C 142.04665,195.16717 124.9599,182.32705 114.06187,160.5 107.01894,146.3941 104.69244,130.75081 107.35903,115.43023 115.82975,66.762566 165.8544,39.892645 211.5,59.492613 c 16.42739,7.053831 31.40507,23.103875 38.78066,41.557267 7.96828,19.93627 5.82275,45.11335 -5.49229,64.45012 -5.10088,8.71714 -18.10883,21.7105 -26.80564,26.77559 -11.0707,6.44766 -20.54811,8.96992 -34.98273,9.31011 -6.875,0.16203 -13.4,0.0822 -14.5,-0.17728 z m 18.70078,-37.5328 c 20.23257,-4.29291 33.56521,-23.74027 29.90277,-43.61702 -3.08433,-16.73929 -14.63089,-28.279296 -31.38398,-31.366174 -15.00099,-2.764043 -31.2761,4.990013 -39.35128,18.748384 -3.79195,6.46068 -5.66773,17.17904 -4.32053,24.68785 1.5524,8.6525 4.05729,13.80025 9.59711,19.72276 5.7129,6.10755 10.97481,9.3557 18.37937,11.34549 6.76998,1.81926 10.38383,1.91998 17.17654,0.47871 z"
         id="path2312" />
      <path
         style="fill:#fbe6b8"
         d="M 59.5,200.59536 C 31.137214,194.11129 8.3859302,171.17734 2.4260446,143.06317 0.62145732,134.55051 0.65118066,120.34227 2.4920741,111.5 4.7268058,100.76603 12.635242,85.717532 20.513271,77.208534 34.573571,62.02211 50.963068,54.352363 71.603336,53.30006 c 8.448472,-0.430728 12.991469,-0.157141 19,1.144212 7.64691,1.656201 23.471024,8.574299 28.227674,12.340772 l 2.33101,1.845773 -8.70277,14.934592 c -4.78652,8.214025 -9.05983,15.323949 -9.49625,15.79983 -0.43641,0.475881 -2.5559,-0.551079 -4.709962,-2.282134 C 79.707753,82.179708 51.248609,89.454041 40.679376,111.79929 37.851275,117.7784 37.50996,119.46921 37.50996,127.5 c 0,8.0091 0.344969,9.72924 3.133227,15.62338 4.302918,9.096 9.232569,14.21324 17.727882,18.40248 13.174787,6.49681 28.104922,5.33709 39.072994,-3.03502 C 99.959347,156.57088 102.19292,155 102.40757,155 c 0.21464,0 4.54255,7.04272 9.61757,15.65049 l 9.22731,15.65048 -2.37622,1.82803 c -4.14809,3.19112 -15.99172,9.08579 -22.293018,11.09541 -8.02268,2.55861 -28.566011,3.31809 -37.083212,1.37095 z m 109,0.81306 c -20.21499,-4.76941 -34.23995,-12.94234 -44.74537,-26.07501 -6.95845,-8.69864 -10.15914,-14.28031 -13.23174,-23.07477 -13.098149,-37.4898 5.72016,-79.067841 42.51242,-93.928893 19.79431,-7.995279 40.71287,-7.051102 60.72751,2.740987 16.7687,8.204027 29.30188,21.925154 36.51784,39.979146 7.96828,19.93627 5.82275,45.11335 -5.49229,64.45012 -5.10088,8.71714 -18.10883,21.7105 -26.80564,26.77559 -11.0707,6.44766 -20.54811,8.96992 -34.98273,9.31011 -6.875,0.16203 -13.4,0.0822 -14.5,-0.17728 z m 18.70078,-37.5328 c 15.59212,-3.3083 26.70954,-14.76556 29.85845,-30.77115 5.19135,-26.38713 -20.06149,-50.343294 -46.04994,-43.685363 -15.42896,3.952718 -25.38701,14.284333 -28.59441,29.667123 -1.35954,6.5204 -1.36138,8.09742 -0.0171,14.68914 3.03977,14.90606 13.13128,25.72632 27.62649,29.62154 6.76998,1.81926 10.38383,1.91998 17.17654,0.47871 z"
         id="path2310" />
      <path
         style="fill:#f8dbc3"
         d="M 63.5,201.35148 C 46.887826,197.89181 34.883756,191.79994 23.747446,181.17769 9.0498748,167.15859 1.0347272,148.21613 1.0347272,127.5 c 0,-12.69469 2.0852275,-21.32 8.0988577,-33.5 C 13.608516,84.93648 15.514393,82.314747 23.064662,74.83635 30.501599,67.470205 33.360768,65.413777 42.155787,61.105252 64.577215,50.12139 88.508535,50.303014 110,61.62015 c 3.575,1.88255 7.5364,4.220615 8.80311,5.1957 l 2.30312,1.772882 -8.69114,14.955634 c -4.78013,8.225599 -9.02631,15.330408 -9.43595,15.788466 -0.40964,0.458057 -2.85159,-0.775319 -5.426561,-2.740836 C 86.445359,88.113664 71.606423,86.947405 58.304017,93.507274 49.888672,97.657167 45.12257,102.64425 40.630718,112 c -2.783834,5.79825 -3.121296,7.47726 -3.125738,15.55186 -0.0047,8.45879 0.242184,9.55197 3.767363,16.68468 5.955677,12.0505 14.986489,18.78817 28.221231,21.05518 10.381857,1.77834 21.485017,-1.1956 29.433232,-7.88359 1.790774,-1.50683 3.546724,-2.29662 3.997074,-1.79779 0.44176,0.48931 4.74417,7.59657 9.5609,15.79391 l 8.7577,14.90424 -2.37124,1.87612 c -4.58087,3.62437 -20.446376,10.66322 -27.568645,12.23104 -6.552764,1.44245 -22.751827,1.9877 -27.802595,0.93583 z m 105,0.0569 C 144.31621,195.70263 129.61492,185.67076 117.50081,166.60759 97.424127,135.01425 105.42494,91.419458 135.5,68.533616 c 8.36706,-6.366974 14.49611,-9.537447 24.52522,-12.686559 10.7787,-3.384479 30.16641,-3.385921 40.93954,-0.003 23.73497,7.453037 40.29308,22.63117 49.3159,45.205863 7.96828,19.93627 5.82275,45.11335 -5.49229,64.45012 -5.10088,8.71714 -18.10883,21.7105 -26.80564,26.77559 -11.0707,6.44766 -20.54811,8.96992 -34.98273,9.31011 -6.875,0.16203 -13.4,0.0822 -14.5,-0.17728 z m 18.70078,-37.5328 c 20.23257,-4.29291 33.56521,-23.74027 29.90277,-43.61702 -2.42184,-13.14382 -9.17935,-22.209904 -20.8557,-27.980671 -7.14528,-3.531385 -8.23484,-3.777604 -16.69599,-3.772949 -8.02641,0.0044 -9.78854,0.353542 -15.55472,3.081812 -15.7489,7.451594 -24.96323,24.464728 -22.08865,40.783988 2.71955,15.4391 13.21614,27.02224 28.11575,31.02613 6.76998,1.81926 10.38383,1.91998 17.17654,0.47871 z"
         id="path2308" />
      <path
         style="fill:#fce1a8"
         d="M 63.5,201.35148 C 37.885628,196.017 19.422976,182.19141 8.9910181,160.53291 -1.9154373,137.88928 -1.8344743,116.55366 9.2433942,94.026007 13.65845,85.04767 15.632084,82.313862 23.064647,74.881299 30.495367,67.450578 33.220134,65.483181 42.117681,61.124194 64.579176,50.12011 88.492987,50.294827 110,61.62015 c 3.575,1.88255 7.5364,4.220615 8.80311,5.1957 l 2.30312,1.772882 -8.69114,14.955634 c -4.78013,8.225599 -9.02631,15.330408 -9.43595,15.788466 -0.40964,0.458057 -2.85159,-0.775319 -5.426561,-2.740836 C 79.2398,82.613537 50.889643,89.723663 40.966304,110.78365 c -7.046454,14.95446 -4.100615,32.181 7.484214,43.76583 13.84116,13.84116 35.937146,15.09254 50.476288,2.85865 1.790774,-1.50683 3.546724,-2.29662 3.997074,-1.79779 0.44176,0.48931 4.74417,7.59657 9.5609,15.79391 l 8.7577,14.90424 -2.37124,1.87612 c -4.58087,3.62437 -20.446376,10.66322 -27.568645,12.23104 -6.552764,1.44245 -22.751827,1.9877 -27.802595,0.93583 z m 99.8918,-1.18331 c -30.48973,-7.76995 -52.45783,-32.65486 -56.47416,-63.97248 -3.26443,-25.45472 7.92475,-51.942515 28.58236,-67.662074 8.36706,-6.366974 14.49611,-9.537447 24.52522,-12.686559 10.77488,-3.383277 30.16676,-3.385845 40.93171,-0.0054 21.67692,6.80702 37.52195,20.286312 46.61875,39.658364 5.21104,11.097129 7.42645,20.713909 7.41731,32.197409 -0.0254,31.86694 -20.85999,60.5486 -51.49299,70.88699 -10.70696,3.61352 -29.26741,4.34642 -40.1082,1.58377 z M 195.5,161.09743 c 8.9775,-4.26268 13.88093,-9.06588 18.22207,-17.84958 3.53414,-7.15084 3.77793,-8.2316 3.77793,-16.74785 0,-8.50203 -0.2475,-9.60452 -3.74479,-16.68079 -4.43324,-8.97005 -9.38716,-13.802777 -18.63183,-18.176023 C 189.22924,88.854929 187.5091,88.50996 179.5,88.50996 c -7.97428,0 -9.74112,0.350663 -15.50286,3.076832 -19.937,9.433198 -28.09085,32.393908 -18.47985,52.038068 8.91409,18.21975 31.66175,26.1717 49.98271,17.47257 z"
         id="path2306" />
      <path
         style="fill:#f7d4b7"
         d="m 59.5,200.46419 c -3.85,-0.82612 -11.654896,-3.78237 -17.344213,-6.56946 -8.795089,-4.30854 -11.658524,-6.36805 -19.12048,-13.75225 -7.689197,-7.60907 -9.401812,-9.98277 -13.826488,-19.16365 -11.1248414,-23.08322 -11.1233242,-44.26168 0.00479,-66.892892 4.301093,-8.74712 6.415744,-11.70835 13.211078,-18.5 C 33.93672,64.080147 45.67373,57.667179 61.321897,54.332947 70.972509,52.276643 87.009054,53.0404 96.5,56.008341 c 7.05925,2.20752 18.04924,7.532983 22.30311,10.807509 l 2.30312,1.772882 -8.69114,14.955634 c -4.78013,8.225599 -9.05188,15.355983 -9.49278,15.845297 -0.44912,0.498433 -2.20614,-0.292151 -3.995504,-1.797798 -7.948215,-6.687982 -19.051375,-9.661924 -29.433232,-7.883588 -8.74431,1.497837 -14.991671,4.688693 -21.032179,10.742243 -20.53787,20.5822 -11.92772,55.04419 15.911512,63.68557 11.754177,3.64854 25.779747,0.96191 34.858269,-6.67716 1.680894,-1.41437 3.377484,-2.20874 3.770204,-1.76526 0.39273,0.44348 4.63966,7.5268 9.43764,15.7407 l 8.72359,14.93437 -2.33131,1.79415 c -4.2673,3.28406 -15.2443,8.61243 -22.3313,10.83989 -9.214326,2.89607 -27.033842,3.5999 -37,1.46141 z m 103.8918,-0.29602 c -26.61344,-6.78212 -47.0383,-26.91508 -54.50372,-53.72476 -3.07788,-11.05324 -3.07788,-26.83358 0,-37.88682 C 116.15914,82.444875 136.06305,62.506552 162,55.35283 c 10.03859,-2.768764 29.2174,-2.518157 39,0.509607 21.33066,6.601951 37.54078,20.397337 46.57568,39.637563 5.21104,11.09713 7.42645,20.71391 7.41731,32.19741 -0.0254,31.86694 -20.85999,60.5486 -51.49299,70.88699 -10.70696,3.61352 -29.26741,4.34642 -40.1082,1.58377 z M 195.5,161.09743 c 8.9775,-4.26268 13.88093,-9.06588 18.22207,-17.84958 3.53414,-7.15084 3.77793,-8.2316 3.77793,-16.74785 0,-8.51387 -0.24442,-9.59828 -3.77234,-16.73654 -11.24613,-22.754996 -39.41893,-28.637062 -59.15779,-12.351282 -5.42816,4.478562 -10.15878,12.600562 -12.23169,21.000602 -4.79045,19.4122 8.06608,40.14948 28.04533,45.23647 7.62514,1.94147 17.83879,0.90377 25.11649,-2.55182 z"
         id="path2304" />
      <path
         style="fill:#f9d8a7"
         d="M 59.5,200.46419 C 55.65,199.63807 47.855871,196.68717 42.179714,193.90663 24.078935,185.0397 11.123367,169.84743 4.3109322,149.5 1.9547477,142.46253 1.6245161,139.87573 1.5662431,128 1.5099288,116.52344 1.8510091,113.37587 3.8418631,107 11.750854,81.670836 29.670836,63.750854 55,55.841863 c 10.813055,-3.376359 30.186945,-3.376359 41,0 7.47288,2.333396 18.42596,7.604556 22.80311,10.973987 l 2.30312,1.772882 -8.69114,14.955634 c -4.78013,8.225599 -9.05188,15.355983 -9.49278,15.845297 -0.44912,0.498433 -2.20614,-0.292151 -3.995504,-1.797798 -20.091248,-16.90567 -51.885719,-7.215149 -59.922202,18.263475 -8.178164,25.9278 12.371669,52.07992 39.158746,49.83418 7.498288,-0.62862 15.963851,-3.93588 21.067826,-8.23059 1.680894,-1.41437 3.377484,-2.20874 3.770204,-1.76526 0.39273,0.44348 4.63966,7.5268 9.43764,15.7407 l 8.72359,14.93437 -2.33131,1.79415 c -4.2673,3.28406 -15.2443,8.61243 -22.3313,10.83989 -9.214326,2.89607 -27.033842,3.5999 -37,1.46141 z m 107.57519,0.51201 c -28.6619,-6.03442 -50.33951,-26.35061 -58.18711,-54.53279 -3.07788,-11.05324 -3.07788,-26.83358 0,-37.88682 C 116.15914,82.444875 136.06305,62.506552 162,55.35283 c 10.03859,-2.768764 29.2174,-2.518157 39,0.509607 25.25661,7.817052 43.2464,25.799605 51.15814,51.137563 3.37702,10.81519 3.37647,30.18824 -0.001,41 -5.35777,17.15008 -16.36115,32.34455 -29.93472,41.33656 -7.30299,4.83797 -11.49678,6.8321 -20.72225,9.85334 -6.90057,2.25987 -27.17789,3.31205 -34.42481,1.7863 z m 29.53857,-40.43497 c 32.66114,-16.14202 26.10699,-63.973921 -9.82184,-71.679275 -14.74053,-3.161278 -31.70019,4.259239 -39.52498,17.293725 -4.86198,8.09906 -6.89809,17.5312 -5.52053,25.57338 2.17337,12.68802 9.80388,23.47567 20.40505,28.84769 6.9517,3.52269 11.35819,4.40275 19.77762,3.94994 6.01058,-0.32326 8.81444,-1.08423 14.68468,-3.98546 z"
         id="path2302" />
      <path
         style="fill:#fbdc98"
         d="M 59.5,200.46419 C 55.65,199.63807 47.855871,196.68717 42.179714,193.90663 24.078935,185.0397 11.123367,169.84743 4.3109322,149.5 1.9547477,142.46253 1.6245161,139.87573 1.5662431,128 1.5099288,116.52344 1.8510091,113.37587 3.8418631,107 11.750854,81.670836 29.670836,63.750854 55,55.841863 c 10.813055,-3.376359 30.186945,-3.376359 41,0 7.47288,2.333396 18.42596,7.604556 22.80311,10.973987 l 2.30312,1.772882 -8.69114,14.955634 c -4.78013,8.225599 -9.05188,15.355983 -9.49278,15.845297 -0.44912,0.498433 -2.20614,-0.292151 -3.995504,-1.797798 -20.091248,-16.90567 -51.885719,-7.215149 -59.922202,18.263475 -8.178164,25.9278 12.371669,52.07992 39.158746,49.83418 7.498288,-0.62862 15.963851,-3.93588 21.067826,-8.23059 1.680894,-1.41437 3.377484,-2.20874 3.770204,-1.76526 0.39273,0.44348 4.63966,7.5268 9.43764,15.7407 l 8.72359,14.93437 -2.33131,1.79415 c -4.2673,3.28406 -15.2443,8.61243 -22.3313,10.83989 -9.214326,2.89607 -27.033842,3.5999 -37,1.46141 z m 107.57519,0.51201 c -28.6619,-6.03442 -50.33951,-26.35061 -58.18711,-54.53279 -3.07788,-11.05324 -3.07788,-26.83358 0,-37.88682 C 116.15914,82.444875 136.06305,62.506552 162,55.35283 c 10.03859,-2.768764 29.2174,-2.518157 39,0.509607 25.25661,7.817052 43.2464,25.799605 51.15814,51.137563 3.37702,10.81519 3.37647,30.18824 -0.001,41 -5.35777,17.15008 -16.36115,32.34455 -29.93472,41.33656 -7.30299,4.83797 -11.49678,6.8321 -20.72225,9.85334 -6.90057,2.25987 -27.17789,3.31205 -34.42481,1.7863 z m 29.53857,-40.43497 c 32.66114,-16.14202 26.10699,-63.973921 -9.82184,-71.679275 -14.74053,-3.161278 -31.70019,4.259239 -39.52498,17.293725 -4.86198,8.09906 -6.89809,17.5312 -5.52053,25.57338 2.17337,12.68802 9.80388,23.47567 20.40505,28.84769 6.9517,3.52269 11.35819,4.40275 19.77762,3.94994 6.01058,-0.32326 8.81444,-1.08423 14.68468,-3.98546 z"
         id="path2300" />
      <path
         style="fill:#f5cba6"
         d="M 60.365317,200.57149 C 45.699376,197.22736 33.719476,190.63239 22.926153,179.96113 14.283575,171.41629 8.4558435,161.88005 4.3109322,149.5 1.9547477,142.46253 1.6245161,139.87573 1.5662431,128 1.5098568,116.50875 1.8487814,113.38927 3.8440137,107.03524 11.830558,81.601256 29.7478,63.678124 55,55.862437 c 9.753003,-3.018604 28.939092,-3.276507 39,-0.524244 6.95053,1.901387 21.05636,8.508054 24.72816,11.581786 l 2.22815,1.865232 -8.9311,15.227006 c -4.9121,8.374853 -9.18197,15.477874 -9.48859,15.784492 -0.30661,0.306621 -1.79029,-0.621766 -3.297051,-2.063075 -4.376658,-4.186535 -13.358452,-7.776129 -21.076219,-8.423159 -17.453523,-1.46324 -33.824885,9.634549 -39.158746,26.544865 -2.536309,8.04103 -2.542805,15.20954 -0.02111,23.28932 7.960091,25.50497 38.75409,34.88654 60.376752,18.39413 l 3.389324,-2.58516 9.17034,15.73485 9.17034,15.73484 -2.29513,1.76686 c -4.23254,3.25833 -15.23108,8.59236 -22.295124,10.8126 -8.982165,2.8231 -27.170535,3.61271 -36.134683,1.56871 z m 106.709873,0.40471 c -28.63148,-6.02802 -50.85131,-26.90858 -58.19722,-54.68948 -2.83063,-10.70494 -2.83063,-26.8685 0,-37.57344 5.76557,-21.804335 23.20228,-41.790956 43.73965,-50.136033 9.84508,-4.000417 21.51019,-5.929042 31.84724,-5.265393 11.50438,0.738592 19.00324,2.710547 29.03514,7.635295 18.75305,9.206039 32.05445,25.0648 38.65599,46.088091 3.38008,10.76423 3.38054,30.14684 9.8e-4,40.96476 -5.35777,17.15008 -16.36115,32.34455 -29.93472,41.33656 -7.30299,4.83797 -11.49678,6.8321 -20.72225,9.85334 -6.90057,2.25987 -27.17789,3.31205 -34.42481,1.7863 z m 29.53857,-40.43497 c 14.37811,-7.10605 22.6745,-21.9417 21.03612,-37.61692 -2.77662,-26.565254 -30.10369,-42.323677 -54.00154,-31.140521 -11.69024,5.470521 -19.10905,15.217941 -21.80692,28.651661 -3.06077,15.2407 5.82392,32.80063 20.31004,40.1413 6.9517,3.52269 11.35819,4.40275 19.77762,3.94994 6.01058,-0.32326 8.81444,-1.08423 14.68468,-3.98546 z"
         id="path2298" />
      <path
         style="fill:#fbd686"
         d="M 60.365317,200.57149 C 45.651931,197.21654 33.6441,190.59285 23.025626,179.97437 7.4738953,164.42264 0.22285183,145.71186 1.3337168,124 2.9875961,91.674923 23.520243,65.605585 55,55.862437 c 9.753003,-3.018604 28.939092,-3.276507 39,-0.524244 6.95053,1.901387 21.05636,8.508054 24.72816,11.581786 l 2.22815,1.865232 -8.9311,15.227006 c -4.9121,8.374853 -9.18197,15.477874 -9.48859,15.784492 -0.30661,0.306621 -1.79029,-0.621766 -3.297051,-2.063075 C 91.322806,90.160778 76.222834,87.185652 64.372907,90.863905 35.904782,99.700497 27.635985,135.84353 49.509004,155.83423 c 7.689615,7.02788 14.548824,9.5673 25.990996,9.62242 7.733337,0.0373 9.807211,-0.33496 14.735464,-2.64467 3.154505,-1.47841 7.260659,-3.85135 9.124786,-5.27319 l 3.38932,-2.58516 9.17034,15.73485 9.17034,15.73484 -2.29513,1.76686 c -4.23254,3.25833 -15.23108,8.59236 -22.29512,10.8126 -8.982165,2.8231 -27.170535,3.61271 -36.134683,1.56871 z M 165.5,200.50066 c -27.74624,-6.19822 -49.41045,-26.94107 -56.62203,-54.21394 -2.83063,-10.70494 -2.83063,-26.8685 0,-37.57344 5.76557,-21.804335 23.20228,-41.790956 43.73965,-50.136033 9.84508,-4.000417 21.51019,-5.929042 31.84724,-5.265393 11.50438,0.738592 19.00324,2.710547 29.03514,7.635295 18.75305,9.206039 32.05445,25.0648 38.65599,46.088091 3.37941,10.7621 3.38043,30.14555 0.002,40.96476 -6.68274,21.40198 -20.16374,37.22452 -39.65814,46.54644 -14.68537,7.02232 -32.2549,9.24812 -47,5.95422 z m 24.0399,-37.0253 c 12.07057,-3.08776 22.71205,-13.26867 26.4766,-25.3307 9.94258,-31.85705 -22.32251,-60.420928 -52.36816,-46.360871 -15.74076,7.36599 -24.80043,24.412601 -21.75591,40.935781 4.2153,22.87728 25.28368,36.47663 47.64747,30.75579 z"
         id="path2296" />
      <path
         style="fill:#f4c398"
         d="M 62.763386,201.03253 C 34.80485,195.93913 12.639603,175.97523 3.8440137,147.96476 0.48134956,137.256 0.4894349,117.85125 3.8610677,107.03524 8.544147,92.012186 16.561896,79.721958 27.703515,70.487688 44.671427,56.424537 68.274792,50.240405 88.974194,54.43464 c 12.250896,2.482349 18.422846,5.183525 31.330606,13.711964 0.58423,0.38601 0.18482,1.796576 -0.99104,3.5 -1.08332,1.569368 -5.2567,8.598846 -9.27417,15.621063 l -7.30448,12.767663 -3.382093,-2.579642 C 93.400127,92.915198 85.146448,89.743438 77.942615,89.228007 48.854753,87.146781 28.242971,117.77005 40.892284,144.2743 c 10.108491,21.18044 37.422095,28.29261 56.417278,14.69046 l 5.334368,-3.81986 9.16958,15.52411 9.16957,15.5241 -2.24154,1.87607 c -3.60212,3.01482 -17.7275,9.67159 -24.24154,11.42415 -7.061758,1.89992 -24.985024,2.76918 -31.736614,1.5392 z M 165.5,200.50066 C 143.35916,195.55463 125.47482,181.85138 114.97378,161.78672 109.33525,151.01299 106.91363,140.9195 106.86773,128 106.79634,107.90448 113.20416,91.32697 126.51076,77.181966 137.06172,65.966228 147.16018,59.833949 162.5,55.327527 c 8.20657,-2.410868 27.50505,-2.386436 36.5,0.04621 25.74987,6.963944 44.9932,25.66625 53.15599,51.661503 3.37941,10.7621 3.38043,30.14555 0.002,40.96476 -6.68274,21.40198 -20.16374,37.22452 -39.65814,46.54644 -14.68537,7.02232 -32.2549,9.24812 -47,5.95422 z m 24.0399,-37.0253 c 20.26178,-5.18314 32.78151,-27.33407 26.87184,-47.54386 C 211.81508,100.21189 198.66442,89.501059 182.45557,88.275187 163.51207,86.842493 147.3955,98.588378 142.35609,117.5 c -4.39643,16.49872 4.07584,35.11106 19.55233,42.95359 9.22612,4.67523 17.59153,5.59007 27.63148,3.02177 z"
         id="path2294" />
      <path
         style="fill:#fbd177"
         d="M 62.763386,201.03253 C 39.208355,196.74134 18.643829,181.03407 8.3875232,159.5 3.1076691,148.41446 1.5503634,141.12579 1.5503634,127.5 c 0,-13.61977 1.5553686,-20.90449 6.8323584,-32 C 22.721679,65.350606 56.899264,47.935428 88.974194,54.43464 c 12.250896,2.482349 18.422846,5.183525 31.330606,13.711964 0.58423,0.38601 0.18482,1.796576 -0.99104,3.5 -1.08332,1.569368 -5.2567,8.598846 -9.27417,15.621063 l -7.30448,12.767663 -3.382093,-2.579642 C 97.492868,96.036883 93.389969,93.666433 90.235464,92.188021 82.473788,88.550382 69.475719,88.407506 60.753341,91.863951 52.747021,95.036641 44.854053,102.51998 40.774113,110.8063 37.734279,116.98018 37.5,118.17437 37.5,127.49551 c 0,9.29951 0.238912,10.52507 3.24128,16.627 10.536117,21.41332 37.508897,28.49038 56.568282,14.84225 l 5.334368,-3.81986 9.16958,15.52411 9.16957,15.5241 -2.24154,1.87607 c -3.60212,3.01482 -17.7275,9.67159 -24.24154,11.42415 -7.061758,1.89992 -24.985024,2.76918 -31.736614,1.5392 z M 166,200.52052 c -28.27873,-6.31385 -50.03318,-27.02746 -57.11764,-54.38487 -2.50931,-9.68996 -2.70531,-25.81003 -0.43329,-35.63565 2.73037,-11.807812 9.39931,-24.10987 18.06169,-33.318034 10.55096,-11.215738 20.64942,-17.348017 35.98924,-21.854439 8.20657,-2.410868 27.50505,-2.386436 36.5,0.04621 25.75424,6.965126 45.03107,25.703707 53.14545,51.661503 3.36184,10.75449 3.36286,30.15317 0.002,40.96476 -7.79984,25.09251 -25.78548,43.20236 -50.6476,50.99738 -9.09934,2.85291 -26.24862,3.58871 -35.5,1.52314 z m 25.14466,-37.52512 c 23.97168,-7.56117 34.22246,-35.88783 20.69671,-57.19262 C 196.03086,80.899212 158.85145,82.690171 145.46875,109 c -2.44035,4.79763 -4.44501,12.68998 -4.44501,17.5 0,9.29866 4.61775,20.19413 11.45766,27.03403 10.24204,10.24205 24.8528,13.81747 38.66326,9.46137 z"
         id="path2292" />
      <path
         style="fill:#fbcf70"
         d="M 60.856327,200.48873 C 52.861401,198.89624 43.942373,195.39755 36.296588,190.85461 28.912786,186.46734 16.379612,173.96529 12.145387,166.76338 -1.0960381,144.2413 -2.4616108,118.34473 8.3875411,95.5 15.496874,80.530095 27.485534,68.404191 42.417366,61.080606 54.404386,55.201357 61.431144,53.615839 75.5,53.615839 c 16.277567,0 26.94402,3.066756 40.21248,11.561655 l 5.21249,3.337201 -9.14949,15.718708 -9.14948,15.718709 -3.327538,-2.538035 C 97.468318,96.018158 93.389969,93.666433 90.235464,92.188021 85.258394,89.855434 83.243825,89.502389 75,89.51807 66.83412,89.533602 64.696991,89.909972 59.781935,92.198126 51.813389,95.9078 44.650817,102.93277 40.74128,110.873 37.738614,116.97137 37.5,118.19508 37.5,127.49551 c 0,9.29951 0.238912,10.52507 3.24128,16.627 10.526929,21.39465 37.285821,28.43327 56.616251,14.89226 l 5.381189,-3.76953 8.88064,15.05697 c 4.88435,8.28133 8.98887,15.31365 9.12116,15.62738 0.13229,0.31372 -2.38051,2.25908 -5.584,4.32302 -15.697483,10.11351 -35.846665,13.91184 -54.300193,10.23612 z M 166,200.52052 c -23.71489,-5.29487 -42.55238,-20.28382 -52.47077,-41.75089 -4.87757,-10.55685 -6.49967,-18.36071 -6.49967,-31.26963 0,-13.6213 1.72611,-21.28798 7.44965,-33.08838 10.44886,-21.542725 31.81431,-36.859383 56.4381,-40.459857 30.66908,-4.484412 62.14288,12.237669 76.36614,40.57346 5.41694,10.791697 7.19547,18.942197 7.19547,32.974777 0,10.80448 -0.39373,14.26665 -2.33132,20.5 -7.79984,25.09251 -25.78548,43.20236 -50.6476,50.99738 -9.09934,2.85291 -26.24862,3.58871 -35.5,1.52314 z m 25.14466,-37.52512 c 28.37383,-8.9497 35.9662,-45.4006 13.65498,-65.557452 -12.19602,-11.018364 -31.67185,-12.402233 -46.02201,-3.270125 -6.3223,4.02337 -10.44004,8.900957 -14.17001,16.784807 -2.75122,5.81512 -3.09822,7.55972 -3.10264,15.59923 -0.005,8.46115 0.24156,9.55071 3.77295,16.69599 8.62357,17.4486 27.45322,25.55555 45.86673,19.74755 z"
         id="path2290" />
      <path
         style="fill:#f2b988"
         d="M 61,200.45513 C 13.052292,190.23213 -12.445451,139.36739 8.3875411,95.5 15.4427,80.644168 27.621059,68.336922 42.474467,61.052319 54.586957,55.111954 61.416782,53.59625 76,53.612188 c 11.456029,0.01252 13.288891,0.283725 21.945794,3.247272 9.614176,3.291253 20.800216,9.31509 21.712516,11.692483 0.27719,0.722369 -3.43336,8.064159 -8.24568,16.315089 l -8.74967,15.00169 -5.343885,-3.826671 C 78.252218,82.388575 51.285701,89.457408 40.74128,110.873 37.738614,116.97137 37.5,118.19508 37.5,127.49551 c 0,9.29951 0.238912,10.52507 3.24128,16.627 10.690512,21.72711 37.61258,28.5873 57.137971,14.55971 l 4.780499,-3.43445 9.17555,15.51191 c 8.44476,14.27645 9.03574,15.61501 7.42012,16.80652 C 102.99087,199.56124 80.326373,204.57573 61,200.45513 Z m 105,0.0654 c -28.96573,-6.46723 -50.65559,-27.68054 -57.52556,-56.26165 -2.56664,-10.67794 -1.65012,-29.9925 1.90425,-40.12978 4.26484,-12.163606 9.16804,-19.881352 18.57592,-29.238948 7.14623,-7.108033 10.30356,-9.419058 18.10076,-13.248943 13.10734,-6.438161 19.99323,-8.063501 33.94463,-8.012267 18.34787,0.06738 31.9491,4.872099 46.48017,16.419404 11.73066,9.321925 19.79964,21.421799 24.66528,36.986904 3.36184,10.75449 3.36286,30.15317 0.002,40.96476 -7.79984,25.09251 -25.78548,43.20236 -50.6476,50.99738 -9.09934,2.85291 -26.24862,3.58871 -35.5,1.52314 z m 25.14466,-37.52512 c 23.97168,-7.56117 34.22246,-35.88783 20.69671,-57.19262 -3.99119,-6.286624 -9.89863,-11.468507 -16.72136,-14.667615 -4.91931,-2.306616 -6.8668,-2.631289 -15.62001,-2.604079 -8.81748,0.02741 -10.66504,0.354139 -15.62399,2.763008 -8.74434,4.247672 -14.30169,9.764906 -18.60367,18.469366 -3.52792,7.13826 -3.77234,8.22267 -3.77234,16.73654 0,8.51625 0.24379,9.59701 3.77793,16.74785 8.62357,17.4486 27.45322,25.55555 45.86673,19.74755 z"
         id="path2288" />
      <path
         style="fill:#facb66"
         d="M 61,200.45513 C 45.593518,197.17029 32.669776,190.06417 22,179.01099 -12.856394,142.90207 -2.475917,83.097473 42.474467,61.052319 54.586957,55.111954 61.416782,53.59625 76,53.612188 c 11.456029,0.01252 13.288891,0.283725 21.945794,3.247272 9.614176,3.291253 20.800216,9.31509 21.712516,11.692483 0.27719,0.722369 -3.43336,8.064159 -8.24568,16.315089 l -8.74967,15.00169 -5.343885,-3.826671 C 78.251713,82.388214 51.284476,89.457699 40.74128,110.87397 37.738514,116.97345 37.5,118.1969 37.5,127.5 c 0,9.3031 0.238514,10.52655 3.24128,16.62603 10.695002,21.72463 37.61439,28.58248 57.137971,14.55619 l 4.780499,-3.43445 9.17555,15.51191 c 8.44476,14.27645 9.03574,15.61501 7.42012,16.80652 C 102.99087,199.56124 80.326373,204.57573 61,200.45513 Z m 105,0.0545 c -16.2258,-3.6698 -28.27964,-10.63338 -39.80633,-22.9964 -8.36631,-8.97333 -14.90375,-21.22249 -17.74801,-33.25433 -2.53316,-10.71582 -1.60195,-30.0478 1.93303,-40.12978 4.26484,-12.163606 9.16804,-19.881352 18.57592,-29.238948 7.14623,-7.108033 10.30356,-9.419058 18.10076,-13.248943 13.10734,-6.438161 19.99323,-8.063501 33.94463,-8.012267 13.17572,0.04839 20.69727,1.699427 31.70384,6.959249 19.18145,9.16644 33.53227,26.276717 39.51455,47.112639 3.18418,11.09029 3.16539,28.5707 -0.0427,39.75411 -7.16091,24.96276 -25.55715,43.65861 -50.67566,51.501 -9.20006,2.8724 -26.35058,3.623 -35.5,1.55367 z m 28.24666,-38.44733 c 8.02102,-3.07554 15.90456,-10.53405 19.98491,-18.90744 2.99734,-6.15093 3.24289,-7.41203 3.24289,-16.65483 0,-9.22301 -0.24953,-10.51197 -3.21153,-16.58912 -3.86756,-7.93509 -11.01996,-14.969552 -19.04486,-18.730824 -5.02882,-2.357007 -6.92345,-2.676309 -15.71807,-2.64897 -8.81748,0.02741 -10.66504,0.354139 -15.62399,2.763008 -8.74434,4.247672 -14.30169,9.764906 -18.60367,18.469366 -3.52518,7.13271 -3.77201,8.22589 -3.76736,16.68468 0.004,8.03639 0.35111,9.78105 3.09035,15.55186 5.25821,11.07754 12.39092,17.5523 23.31361,21.16304 7.29445,2.41134 18.38724,1.94773 26.33772,-1.10077 z"
         id="path2286" />
      <path
         style="fill:#f1b27b"
         d="M 63.120775,200.94138 C 37.889339,196.42849 15.880692,178.68963 6.4670998,155.27879 -5.6247903,125.20724 3.5922029,89.857408 28.734213,69.877975 49.542742,53.3422 75.821814,48.84648 100.22202,57.648124 c 7.84106,2.828425 18.65473,8.867115 19.41187,10.840187 0.27801,0.724482 -3.42298,8.04649 -8.22442,16.271129 l -8.7299,14.953888 -5.351611,-3.748818 C 78.029862,82.446149 51.264493,89.49829 40.74128,110.87397 37.738514,116.97345 37.5,118.1969 37.5,127.5 c 0,9.3031 0.238514,10.52655 3.24128,16.62603 10.701584,21.738 37.613917,28.58282 57.162487,14.53857 l 4.805013,-3.45205 3.8529,6.64372 c 2.1191,3.65405 6.24118,10.64967 9.1602,15.54581 2.91901,4.89614 5.18823,9.0042 5.04271,9.12902 -0.14553,0.12482 -2.73959,1.79139 -5.76459,3.70348 -6.81406,4.30715 -13.57817,7.31618 -20.88823,9.29219 -7.065993,1.91003 -23.919916,2.67934 -30.990995,1.41461 z M 166,200.5096 c -22.29896,-5.04337 -41.16345,-19.39391 -50.85482,-38.68613 -6.39792,-12.73609 -8.47815,-22.54205 -7.90145,-37.2466 0.82005,-20.90943 6.87036,-34.713865 21.74066,-49.60364 14.52273,-14.541764 31.02297,-21.385442 51.51561,-21.366744 21.45775,0.01958 38.71412,7.351721 53.9494,22.922825 C 268.70516,111.54013 258.24,171.65326 214,193.99309 c -13.91518,7.02673 -33.80503,9.72699 -48,6.51651 z m 28.24666,-38.44733 c 8.02102,-3.07554 15.90456,-10.53405 19.98491,-18.90744 2.99734,-6.15093 3.24289,-7.41203 3.24289,-16.65483 0,-9.22301 -0.24953,-10.51197 -3.21153,-16.58912 C 210.39537,101.97579 203.24297,94.941328 195.21807,91.180056 190.21088,88.833189 188.25678,88.5 179.5,88.5 c -8.28307,0 -10.84479,0.389591 -14.92034,2.269119 -18.47425,8.519792 -27.65828,28.774731 -21.51935,47.459881 7.0294,21.39547 29.84203,32.01743 51.18635,23.83327 z"
         id="path2284" />
      <path
         style="fill:#fac657"
         d="M 63.237554,200.95819 C 34.128414,195.72916 11.270572,174.73634 3.3968345,146 0.96832533,137.13681 0.95239186,117.96388 3.366086,109 14.76684,66.66032 59.482547,42.952579 100.22202,57.648124 c 7.84106,2.828425 18.65473,8.867115 19.41187,10.840187 0.27801,0.724482 -3.42298,8.04649 -8.22442,16.271129 l -8.7299,14.953888 -5.351611,-3.748818 C 78.029862,82.446149 51.264493,89.49829 40.74128,110.87397 37.738514,116.97345 37.5,118.1969 37.5,127.5 c 0,9.3031 0.238514,10.52655 3.24128,16.62603 10.701584,21.738 37.613917,28.58282 57.162487,14.53857 l 4.805013,-3.45205 3.8529,6.64372 c 2.1191,3.65405 6.24118,10.64967 9.1602,15.54581 2.91901,4.89614 5.18823,9.0042 5.04271,9.12902 -0.14553,0.12482 -2.73959,1.79139 -5.76459,3.70348 -6.81406,4.30715 -13.57817,7.31618 -20.88823,9.29219 -7.025741,1.89915 -23.912138,2.68205 -30.874216,1.43142 z m 104.883216,-0.0196 c -28.61179,-5.10261 -52.13922,-27.28318 -59.25377,-55.86171 -1.74085,-6.99284 -2.01649,-10.47383 -1.62327,-20.5 0.82005,-20.90943 6.87036,-34.713865 21.74066,-49.60364 C 143.50712,60.431466 160.00736,53.587788 180.5,53.606486 215.04517,53.638006 243.40346,75.424363 252.60317,109 c 2.43317,8.88021 2.44513,28.04428 0.0231,37 -7.03966,26.02986 -27.58009,46.72854 -53.12626,53.53558 -7.33771,1.95521 -24.08433,2.70397 -31.37923,1.403 z m 28.29614,-39.82306 c 7.62618,-3.75436 14.71935,-11.0381 18.40303,-18.89745 2.34687,-5.00719 2.68006,-6.96129 2.68006,-15.71807 0,-8.75678 -0.33319,-10.71088 -2.68006,-15.71807 -3.74237,-7.98459 -10.76459,-15.13706 -18.69391,-19.04065 -6.0967,-3.001397 -7.32562,-3.24128 -16.605,-3.24128 -8.30494,0 -10.86364,0.388585 -14.94137,2.269119 -10.44187,4.81549 -17.8131,13.050011 -21.51275,24.032261 -6.63355,19.69138 4.41741,41.49431 24.43309,48.20514 8.97943,3.01061 20.48922,2.25794 28.91691,-1.891 z"
         id="path2282" />
      <path
         style="fill:#f1ae75"
         d="M 59.804328,200.02554 C 37.6491,195.35348 17.865774,179.7455 8.4376572,159.5 -13.002504,113.4604 15.367485,61.343125 65.89061,53.955668 75.461522,52.556215 84.216966,53.194813 95,56.078825 c 7.89061,2.110409 22.61849,9.361569 24.23757,11.933184 0.70799,1.124511 -1.2904,5.388278 -7.79766,16.637087 l -8.74962,15.125077 -4.795766,-3.445419 C 90.270856,90.851695 82.95365,88.714845 73.5,89.204802 59.066384,89.952856 47.165134,97.825269 40.74128,110.87397 37.738514,116.97345 37.5,118.1969 37.5,127.5 c 0,9.3031 0.238514,10.52655 3.24128,16.62603 3.90359,7.92932 11.05606,14.95154 19.040655,18.69391 C 64.72625,165.13734 66.785509,165.5 75,165.5 c 10.808141,0 16.473208,-1.68819 23.395,-6.97171 l 4.26789,-3.25776 7.37721,12.61474 c 4.05746,6.9381 8.17678,13.99083 9.15405,15.67274 l 1.77684,3.058 -6.82324,4.08693 c -8.48248,5.08076 -18.460629,8.73062 -27.839303,10.18322 -9.78162,1.515 -16.232055,1.30554 -26.504119,-0.86062 z m 108.316442,0.91304 c -15.25678,-2.72088 -29.84979,-10.67977 -40.72455,-22.21076 -8.24088,-8.73817 -13.49383,-17.39101 -17.13651,-28.22782 -2.44375,-7.27004 -2.68911,-9.36867 -2.68911,-23 0,-13.63133 0.24536,-15.72996 2.68911,-23 3.92227,-11.668595 9.14467,-19.899647 18.74029,-29.536699 6.42235,-6.450077 10.50757,-9.57426 16.71328,-12.781521 28.29369,-14.62286 59.83826,-10.824457 84.5422,10.18005 9.97424,8.480593 18.43173,22.346318 22.34769,36.63817 2.43317,8.88021 2.44513,28.04428 0.0231,37 -7.03966,26.02986 -27.58009,46.72854 -53.12626,53.53558 -7.33771,1.95521 -24.08433,2.70397 -31.37923,1.403 z m 28.29614,-39.82306 c 7.62618,-3.75436 14.71935,-11.0381 18.40303,-18.89745 2.34687,-5.00719 2.68006,-6.96129 2.68006,-15.71807 0,-8.75678 -0.33319,-10.71088 -2.68006,-15.71807 -3.74237,-7.98459 -10.76459,-15.13706 -18.69391,-19.04065 -6.0967,-3.001397 -7.32562,-3.24128 -16.605,-3.24128 -8.7377,0 -10.74075,0.337469 -15.64104,2.635165 -6.82273,3.199108 -12.73017,8.380991 -16.72136,14.667615 -13.42003,21.13827 -3.42936,49.23392 20.34137,57.20374 8.97943,3.01061 20.48922,2.25794 28.91691,-1.891 z"
         id="path2280" />
      <path
         style="fill:#f9c248"
         d="M 59.804328,200.02554 C 32.737065,194.31763 10.795601,173.3087 3.3807234,146 c -2.41989145,-8.91237 -2.41989145,-28.08763 0,-37 C 11.363857,79.598431 35.425792,58.410213 65.89061,53.955668 75.461522,52.556215 84.216966,53.194813 95,56.078825 c 7.89061,2.110409 22.61849,9.361569 24.23757,11.933184 0.70799,1.124511 -1.2904,5.388278 -7.79766,16.637087 l -8.74962,15.125077 -4.795766,-3.445419 C 90.270856,90.851695 82.95365,88.714845 73.5,89.204802 59.066384,89.952856 47.165134,97.825269 40.74128,110.87397 37.738514,116.97345 37.5,118.1969 37.5,127.5 c 0,9.3031 0.238514,10.52655 3.24128,16.62603 3.90359,7.92932 11.05606,14.95154 19.040655,18.69391 C 64.72625,165.13734 66.785509,165.5 75,165.5 c 10.808141,0 16.473208,-1.68819 23.395,-6.97171 l 4.26789,-3.25776 7.37721,12.61474 c 4.05746,6.9381 8.17678,13.99083 9.15405,15.67274 l 1.77684,3.058 -6.82324,4.08693 c -8.48248,5.08076 -18.460629,8.73062 -27.839303,10.18322 -9.78162,1.515 -16.232055,1.30554 -26.504119,-0.86062 z M 171.5,201.44336 c -1.1,-0.25468 -4.475,-0.95861 -7.5,-1.56431 -13.00534,-2.60405 -26.44212,-10.37558 -36.64507,-21.1947 -8.20146,-8.69675 -13.45744,-17.36212 -17.09522,-28.18435 -2.44375,-7.27004 -2.68911,-9.36867 -2.68911,-23 0,-13.63133 0.24536,-15.72996 2.68911,-23 3.92227,-11.668595 9.14467,-19.899647 18.74029,-29.536699 6.42235,-6.450077 10.50757,-9.57426 16.71328,-12.781521 28.062,-14.503114 59.86446,-10.839577 83.75947,9.648809 10.70476,9.178624 19.28956,22.964363 23.14653,37.169411 2.42965,8.94832 2.42131,28.10427 -0.0161,37 -7.20016,26.278 -27.44229,46.65376 -53.10317,53.45374 -5.96406,1.58044 -24.17737,2.87464 -28,1.98962 z M 196.25953,161.193 c 7.79013,-3.83507 14.84467,-11.04716 18.56041,-18.97493 2.34687,-5.00719 2.68006,-6.96129 2.68006,-15.71807 0,-8.75678 -0.33319,-10.71088 -2.68006,-15.71807 -3.74237,-7.98459 -10.76459,-15.13706 -18.69391,-19.04065 -6.0967,-3.001397 -7.32562,-3.24128 -16.605,-3.24128 -8.7377,0 -10.74075,0.337469 -15.64104,2.635165 -10.30392,4.831404 -18.11305,13.925905 -21.29173,24.796335 -4.42123,15.11967 1.3713,32.11218 14.16737,41.56029 11.16849,8.24637 27.21706,9.75 39.5039,3.70121 z"
         id="path2278" />
      <path
         style="fill:#f0a769"
         d="M 62.5,200.5891 C 35.823307,195.39322 14.039849,176.94388 5.4634341,152.2824 -8.1844117,113.03803 12.490338,70.56331 51.637041,57.422195 c 15.521245,-5.210311 30.881107,-5.336842 46.642643,-0.384234 7.089196,2.227576 19.567626,8.772874 20.973086,11.000991 0.69414,1.100442 -1.37735,5.467039 -7.88774,16.62696 l -8.82911,15.134589 -3.688458,-2.921314 C 91.578322,91.121922 86.485725,89.513792 75.5,89.506572 66.58832,89.500715 64.822807,89.812801 59.277627,92.374165 51.653633,95.895751 43.967484,103.6993 40.195887,111.74736 37.831273,116.79311 37.5,118.72881 37.5,127.5 c 0,8.75678 0.333189,10.71088 2.680056,15.71807 3.55466,7.58408 10.900534,15.2638 18.303692,19.13553 5.636776,2.94794 6.679868,3.1464 16.537279,3.1464 9.832561,0 10.949755,-0.21106 17.072754,-3.2254 3.603449,-1.77398 7.384547,-4.14567 8.402439,-5.27042 1.83112,-2.02337 1.94563,-1.88425 10.81717,13.1418 6.91527,11.71265 8.73835,15.54909 7.96934,16.77042 -1.67861,2.66593 -16.33202,9.87721 -24.610053,12.11116 -9.968855,2.69026 -23.104342,3.3278 -32.172677,1.56154 z m 109,0.85426 c -1.1,-0.25468 -4.475,-0.95861 -7.5,-1.56431 -13.06914,-2.61682 -26.65309,-10.49734 -36.71327,-21.29863 -8.24999,-8.85775 -13.46304,-17.46273 -17.01162,-28.08042 -2.41421,-7.22357 -2.67713,-9.4558 -2.70902,-23 -0.0337,-14.30032 0.11019,-15.40867 3.08404,-23.76121 5.44443,-15.291637 14.40503,-27.395587 26.86132,-36.284209 C 150.88231,57.913329 164.36205,53.663698 181,53.744355 214.77368,53.908082 243.72564,76.245072 252.61928,109 c 2.42965,8.94832 2.42131,28.10427 -0.0161,37 -7.20016,26.278 -27.44229,46.65376 -53.10317,53.45374 -5.96406,1.58044 -24.17737,2.87464 -28,1.98962 z M 196.25953,161.193 c 7.79013,-3.83507 14.84467,-11.04716 18.56041,-18.97493 2.34687,-5.00719 2.68006,-6.96129 2.68006,-15.71807 0,-8.75678 -0.33319,-10.71088 -2.68006,-15.71807 -3.74487,-7.98992 -10.76448,-15.137573 -18.69956,-19.04065 -6.10042,-3.000653 -7.33315,-3.24128 -16.605,-3.24128 -8.7316,0 -10.73576,0.337778 -15.63539,2.635165 -10.30392,4.831404 -18.11305,13.925905 -21.29173,24.796335 -4.42123,15.11967 1.3713,32.11218 14.16737,41.56029 11.16849,8.24637 27.21706,9.75 39.5039,3.70121 z"
         id="path2276" />
      <path
         style="fill:#efa361"
         d="M 62.5,200.5891 C 19.456979,192.20551 -6.7470152,151.47456 3.6063206,109.04598 9.3599708,85.467177 28.102615,65.322441 51.637041,57.422195 c 15.521245,-5.210311 30.881107,-5.336842 46.642643,-0.384234 7.089196,2.227576 19.567626,8.772874 20.973086,11.000991 0.69414,1.100442 -1.37735,5.467039 -7.88774,16.62696 l -8.82911,15.134589 -3.688458,-2.921314 C 91.578322,91.121922 86.485725,89.513792 75.5,89.506572 66.58832,89.500715 64.822807,89.812801 59.277627,92.374165 51.653633,95.895751 43.967484,103.6993 40.195887,111.74736 37.831273,116.79311 37.5,118.72881 37.5,127.5 c 0,8.75678 0.333189,10.71088 2.680056,15.71807 3.55466,7.58408 10.900534,15.2638 18.303692,19.13553 5.636776,2.94794 6.679868,3.1464 16.537279,3.1464 9.832561,0 10.949755,-0.21106 17.072754,-3.2254 3.603449,-1.77398 7.384547,-4.14567 8.402439,-5.27042 1.83112,-2.02337 1.94563,-1.88425 10.81717,13.1418 6.91527,11.71265 8.73835,15.54909 7.96934,16.77042 -1.67861,2.66593 -16.33202,9.87721 -24.610053,12.11116 -9.968855,2.69026 -23.104342,3.3278 -32.172677,1.56154 z M 167,200.5702 c -15.78761,-3.35205 -27.28813,-9.62276 -38.5,-20.9923 -9.16941,-9.29835 -14.40736,-17.65555 -18.22489,-29.07795 -2.41421,-7.22357 -2.67713,-9.4558 -2.70902,-23 -0.0337,-14.30032 0.11019,-15.40867 3.08404,-23.76121 5.44443,-15.291637 14.40503,-27.395587 26.86132,-36.284209 13.37086,-9.541252 26.8506,-13.790883 43.48855,-13.710226 35.23633,0.170818 65.01836,24.359578 72.07105,58.535595 2.40565,11.65737 2.39971,18.8113 -0.0254,30.56404 -5.61918,27.23215 -26.62542,49.43771 -53.54565,56.60276 -8.49341,2.2606 -24.53298,2.81507 -32.5,1.1235 z m 29.23183,-39.36362 c 7.819,-3.84928 14.8668,-11.04891 18.58811,-18.98856 2.34687,-5.00719 2.68006,-6.96129 2.68006,-15.71807 0,-8.75678 -0.33319,-10.71088 -2.68006,-15.71807 -3.74487,-7.98992 -10.76448,-15.137573 -18.69956,-19.04065 -6.10042,-3.000653 -7.33315,-3.24128 -16.605,-3.24128 -8.7316,0 -10.73576,0.337778 -15.63539,2.635165 -27.46015,12.875775 -30.69496,49.796555 -5.88175,67.131815 7.62243,5.32526 12.81069,6.76509 23.12859,6.41857 7.33326,-0.24628 9.59822,-0.76794 15.105,-3.47892 z"
         id="path2274" />
      <path
         style="fill:#fac135"
         d="M 62.5,200.5891 C 28.456676,193.9584 4.895409,167.83134 1.4066192,132.84271 0.03756407,119.11263 5.2617904,98.941524 13.327899,86.813807 18.650589,78.810931 28.834659,69.099366 37.088677,64.155447 60.06811,50.391426 87.827783,49.873751 111.4057,62.769549 c 3.79814,2.077367 7.32932,4.448599 7.84707,5.269403 0.69414,1.100442 -1.37735,5.467039 -7.88774,16.62696 l -8.82911,15.134589 -3.688458,-2.921314 C 91.578322,91.121922 86.485725,89.513792 75.5,89.506572 66.58832,89.500715 64.822807,89.812801 59.277627,92.374165 51.653633,95.895751 43.967484,103.6993 40.195887,111.74736 37.831273,116.79311 37.5,118.72881 37.5,127.5 c 0,8.75678 0.333189,10.71088 2.680056,15.71807 3.55466,7.58408 10.900534,15.2638 18.303692,19.13553 5.636776,2.94794 6.679868,3.1464 16.537279,3.1464 9.832561,0 10.949755,-0.21106 17.072754,-3.2254 3.603449,-1.77398 7.384547,-4.14567 8.402439,-5.27042 1.83112,-2.02337 1.94563,-1.88425 10.81717,13.1418 6.91527,11.71265 8.73835,15.54909 7.96934,16.77042 -1.67861,2.66593 -16.33202,9.87721 -24.610053,12.11116 -9.968855,2.69026 -23.104342,3.3278 -32.172677,1.56154 z m 105,-0.018 C 151.65073,197.43389 140.32403,191.39023 129,180.02838 119.39419,170.3905 114.16879,162.15025 110.27511,150.5 c -2.41421,-7.22357 -2.67713,-9.4558 -2.70902,-23 -0.0337,-14.30032 0.11019,-15.40867 3.08404,-23.76121 5.44443,-15.291637 14.40503,-27.395587 26.86132,-36.284209 13.37086,-9.541252 26.8506,-13.790883 43.48855,-13.710226 34.0418,0.165027 62.978,22.709074 71.56464,55.755645 2.44713,9.41804 2.45912,26.50108 0.0253,36 -6.65474,25.97238 -27.50873,47.16027 -53.08991,53.93996 -8.57607,2.27288 -23.55652,2.8024 -32,1.13111 z m 28.73183,-39.36444 c 7.819,-3.84928 14.8668,-11.04891 18.58811,-18.98856 2.34687,-5.00719 2.68006,-6.96129 2.68006,-15.71807 0,-8.75678 -0.33319,-10.71088 -2.68006,-15.71807 -3.74487,-7.98992 -10.76448,-15.137573 -18.69956,-19.04065 -6.10042,-3.000653 -7.33315,-3.24128 -16.605,-3.24128 -8.7316,0 -10.73576,0.337778 -15.63539,2.635165 -26.04254,12.211075 -30.69152,47.336355 -8.62546,65.169405 8.49748,6.86737 14.37978,8.77351 25.8723,8.38379 7.32966,-0.24855 9.60092,-0.77208 15.105,-3.48173 z"
         id="path2272" />
      <path
         style="fill:#f1a657"
         d="M 62.5,200.5891 C 33.361808,194.91379 10.547252,173.70959 3.6559242,145.89851 -0.19924968,130.34033 0.65100178,116.20317 6.3562558,101 15.963533,75.398851 38.835167,57.670966 67.178365,53.856566 c 9.356901,-1.259242 20.643273,-0.104744 31.101319,3.181395 7.089196,2.227576 19.567626,8.772874 20.973086,11.000991 0.69414,1.100442 -1.37735,5.467039 -7.88774,16.62696 l -8.82911,15.134589 -3.688458,-2.921314 C 91.578322,91.121922 86.485725,89.513792 75.5,89.506572 66.364877,89.500568 64.93783,89.768844 59,92.608467 50.910553,96.477048 44.836328,102.57141 40.69278,110.97639 37.744515,116.9568 37.5,118.22161 37.5,127.49177 c 0,9.26844 0.245061,10.53671 3.19278,16.52361 3.956331,8.03541 9.977029,14.23626 17.80722,18.34004 5.622358,2.94666 6.662197,3.14458 16.521027,3.14458 9.832561,0 10.949755,-0.21106 17.072754,-3.2254 3.603449,-1.77398 7.384547,-4.14567 8.402439,-5.27042 1.83112,-2.02337 1.94563,-1.88425 10.81717,13.1418 6.91527,11.71265 8.73835,15.54909 7.96934,16.77042 -1.67861,2.66593 -16.33202,9.87721 -24.610053,12.11116 -9.968855,2.69026 -23.104342,3.3278 -32.172677,1.56154 z m 105,-0.018 C 151.65073,197.43389 140.32403,191.39023 129,180.02838 119.39419,170.3905 114.16879,162.15025 110.27511,150.5 c -2.41421,-7.22357 -2.67713,-9.4558 -2.70902,-23 -0.0337,-14.30032 0.11019,-15.40867 3.08404,-23.76121 5.44443,-15.291637 14.40503,-27.395587 26.86132,-36.284209 13.37086,-9.541252 26.8506,-13.790883 43.48855,-13.710226 34.0418,0.165027 62.978,22.709074 71.56464,55.755645 2.44713,9.41804 2.45912,26.50108 0.0253,36 -6.65474,25.97238 -27.50873,47.16027 -53.08991,53.93996 -8.57607,2.27288 -23.55652,2.8024 -32,1.13111 z m 28.73183,-39.36444 c 7.819,-3.84928 14.8668,-11.04891 18.58811,-18.98856 2.34687,-5.00719 2.68006,-6.96129 2.68006,-15.71807 0,-8.75678 -0.33319,-10.71088 -2.68006,-15.71807 -3.74487,-7.98992 -10.76448,-15.137573 -18.69956,-19.04065 -6.10042,-3.000653 -7.33315,-3.24128 -16.605,-3.24128 -8.7316,0 -10.73576,0.337778 -15.63539,2.635165 -26.04254,12.211075 -30.69152,47.336355 -8.62546,65.169405 8.49748,6.86737 14.37978,8.77351 25.8723,8.38379 7.32966,-0.24855 9.60092,-0.77208 15.105,-3.48173 z"
         id="path2270" />
      <path
         style="fill:#f8bc37"
         d="M 62.5,200.5891 C 33.361808,194.91379 10.547252,173.70959 3.6559242,145.89851 -0.19924968,130.34033 0.65100178,116.20317 6.3562558,101 15.963533,75.398851 38.835167,57.670966 67.178365,53.856566 c 9.356901,-1.259242 20.643273,-0.104744 31.101319,3.181395 7.089196,2.227576 19.567626,8.772874 20.973086,11.000991 0.69414,1.100442 -1.37735,5.467039 -7.88774,16.62696 l -8.82911,15.134589 -3.688458,-2.921314 C 91.578322,91.121922 86.485725,89.513792 75.5,89.506572 66.364877,89.500568 64.93783,89.768844 59,92.608467 50.910553,96.477048 44.836328,102.57141 40.69278,110.97639 37.744515,116.9568 37.5,118.22161 37.5,127.49177 c 0,9.26844 0.245061,10.53671 3.19278,16.52361 3.956331,8.03541 9.977029,14.23626 17.80722,18.34004 5.622358,2.94666 6.662197,3.14458 16.521027,3.14458 9.832561,0 10.949755,-0.21106 17.072754,-3.2254 3.603449,-1.77398 7.384547,-4.14567 8.402439,-5.27042 1.83112,-2.02337 1.94563,-1.88425 10.81717,13.1418 6.91527,11.71265 8.73835,15.54909 7.96934,16.77042 -1.67861,2.66593 -16.33202,9.87721 -24.610053,12.11116 -9.968855,2.69026 -23.104342,3.3278 -32.172677,1.56154 z m 105,-0.018 C 151.65073,197.43389 140.32403,191.39023 129,180.02838 119.39419,170.3905 114.16879,162.15025 110.27511,150.5 c -2.41421,-7.22357 -2.67713,-9.4558 -2.70902,-23 -0.0337,-14.30032 0.11019,-15.40867 3.08404,-23.76121 5.44443,-15.291637 14.40503,-27.395587 26.86132,-36.284209 13.37086,-9.541252 26.8506,-13.790883 43.48855,-13.710226 34.0418,0.165027 62.978,22.709074 71.56464,55.755645 2.44713,9.41804 2.45912,26.50108 0.0253,36 -6.65474,25.97238 -27.50873,47.16027 -53.08991,53.93996 -8.57607,2.27288 -23.55652,2.8024 -32,1.13111 z m 28.73183,-39.36444 c 7.819,-3.84928 14.8668,-11.04891 18.58811,-18.98856 2.34687,-5.00719 2.68006,-6.96129 2.68006,-15.71807 0,-8.75678 -0.33319,-10.71088 -2.68006,-15.71807 -3.74487,-7.98992 -10.76448,-15.137573 -18.69956,-19.04065 -6.10042,-3.000653 -7.33315,-3.24128 -16.605,-3.24128 -8.7316,0 -10.73576,0.337778 -15.63539,2.635165 -26.04254,12.211075 -30.69152,47.336355 -8.62546,65.169405 8.49748,6.86737 14.37978,8.77351 25.8723,8.38379 7.32966,-0.24855 9.60092,-0.77208 15.105,-3.48173 z"
         id="path2268" />
      <path
         style="fill:#ee9b54"
         d="M 64.803268,200.97915 C 18.300085,193.68198 -9.9963306,146.5928 5.683229,102.59515 10.309816,89.612708 16.731623,80.378767 27.638475,71.025613 48.42372,53.201259 79.755242,48.514274 104.61839,59.509937 c 7.85826,3.475297 15.54622,8.490912 15.179,9.902762 -0.16356,0.628863 -4.10063,7.696034 -8.74903,15.704825 l -8.45163,14.561439 -4.234813,-3.232502 C 91.369041,91.108678 85.834247,89.499065 74.5,89.507006 65.471505,89.513332 63.945563,89.794214 58.793005,92.398212 51.23132,96.219734 44.61327,103.00943 40.694802,110.9658 37.744678,116.95597 37.5,118.22163 37.5,127.49177 c 0,9.26842 0.245225,10.53754 3.194802,16.5342 3.935988,8.00209 10.947777,15.17475 18.266973,18.68608 4.380448,2.10149 7.419694,2.74271 14.538225,3.06729 10.386526,0.47359 17.460052,-1.57583 24.814312,-7.18946 l 4.245538,-3.2407 8.81666,15.06051 c 6.24521,10.66799 8.55523,15.47497 7.92028,16.48157 -1.65073,2.61696 -16.86109,10.07913 -24.556152,12.0472 -9.242643,2.36387 -22.234252,3.24944 -29.93737,2.04069 z M 167.5,200.57107 c -15.47245,-3.06259 -27.12889,-9.19931 -38.09614,-20.05631 -14.37777,-14.23324 -21.16922,-29.30643 -22.13091,-49.1181 -1.77176,-36.500071 20.85897,-67.047212 56.22705,-75.895688 9.81589,-2.455765 25.65453,-2.28575 35.78672,0.384141 25.94347,6.836257 46.49769,27.520473 53.27792,53.614887 2.44713,9.41804 2.45912,26.50108 0.0253,36 -6.65474,25.97238 -27.50873,47.16027 -53.08991,53.93996 -8.57607,2.27288 -23.55652,2.8024 -32,1.13111 z m 28.73183,-39.36444 c 7.819,-3.84928 14.8668,-11.04891 18.58811,-18.98856 2.34687,-5.00719 2.68006,-6.96129 2.68006,-15.71807 0,-8.77119 -0.33127,-10.70689 -2.69589,-15.75264 C 211.27065,103.20744 203.45407,95.059581 196.26565,91.423212 190.98762,88.753239 189.61198,88.50629 180,88.503284 c -9.30302,-0.0029 -11.15185,0.302236 -16.21807,2.676772 -8.01138,3.754936 -15.17439,10.795104 -19.05763,18.730824 -2.98617,6.10248 -3.22254,7.32767 -3.20043,16.58912 0.0207,8.65439 0.37587,10.75691 2.63971,15.62504 4.54615,9.77596 12.96425,17.44259 23.13626,21.07092 8.30318,2.96173 20.59122,2.11682 28.93199,-1.98933 z"
         id="path2266" />
      <path
         style="fill:#f8b626"
         d="M 64.803268,200.97915 C 46.062634,198.03841 29.113656,188.09629 16.79804,172.81968 5.3981586,158.67898 -0.61342966,136.81411 1.9114538,118.67538 4.8111929,97.843689 15.441254,79.742125 32,67.438634 51.8627,52.680236 81.787355,49.412971 104.61839,59.509937 c 7.85826,3.475297 15.54622,8.490912 15.179,9.902762 -0.16356,0.628863 -4.10063,7.696034 -8.74903,15.704825 l -8.45163,14.561439 -4.234813,-3.232502 C 91.369041,91.108678 85.834247,89.499065 74.5,89.507006 c -9.028495,0.0063 -10.554437,0.287208 -15.706995,2.891206 -7.566454,3.823932 -14.181986,10.613978 -18.098203,18.575608 -2.98136,6.06108 -3.194242,7.19755 -3.186415,17.01059 0.0079,9.84791 0.208237,10.89655 3.155936,16.51559 4.006865,7.63807 11.218368,14.81591 18.297452,18.21205 4.380448,2.10149 7.419694,2.74271 14.538225,3.06729 10.386526,0.47359 17.460052,-1.57583 24.814312,-7.18946 l 4.245538,-3.2407 8.81666,15.06051 c 6.24521,10.66799 8.55523,15.47497 7.92028,16.48157 -1.65073,2.61696 -16.86109,10.07913 -24.556152,12.0472 -9.242643,2.36387 -22.234252,3.24944 -29.93737,2.04069 z m 105.027592,0.0639 c -16.61211,-3.0388 -29.27004,-9.46372 -40.427,-20.51998 -14.3812,-14.25139 -21.16948,-29.32008 -22.13091,-49.1264 -1.03275,-21.27559 5.53497,-39.647272 19.52445,-54.615196 21.955,-23.490565 58.13355,-29.920403 86.88464,-15.441588 27.92363,14.062119 44.30768,44.387804 40.40837,74.792984 -4.76389,37.1469 -33.63699,63.76041 -70.93859,65.38701 -4.7585,0.2075 -10.75293,-0.007 -13.32096,-0.47683 z m 26.29936,-39.78432 c 7.92504,-3.90397 14.9492,-11.06002 18.68972,-19.04065 2.34687,-5.00719 2.68006,-6.96129 2.68006,-15.71807 0,-8.77119 -0.33127,-10.70689 -2.69589,-15.75264 C 211.27065,103.20744 203.45407,95.059581 196.26565,91.423212 190.98762,88.753239 189.61198,88.50629 180,88.503284 c -9.30302,-0.0029 -11.15185,0.302236 -16.21807,2.676772 -8.01138,3.754936 -15.17439,10.795104 -19.05763,18.730824 -2.98617,6.10248 -3.22254,7.32767 -3.20043,16.58912 0.0207,8.67659 0.37317,10.75146 2.66322,15.67819 4.64633,9.99597 13.71752,18.05799 24.09895,21.41794 2.52456,0.81708 7.63178,1.27165 12.73918,1.13386 7.32483,-0.19761 9.45169,-0.68638 15.105,-3.47127 z"
         id="path2264" />
      <path
         style="fill:#ec9347"
         d="M 66.192864,200.96513 C 46.72041,198.321 29.273921,188.39125 16.806642,172.85672 5.3824118,158.62186 -0.61322995,136.81268 1.9114538,118.67538 5.3664906,93.854437 19.928006,72.788603 41.100991,61.980712 59.585865,52.544985 79.521461,51.024255 99.14881,57.5527 c 7.35903,2.447758 19.94096,9.216535 20.55472,11.057944 0.16303,0.489146 -3.64106,7.664642 -8.45355,15.945548 L 102.5,99.612384 98.282311,96.39013 c -7.307906,-5.583135 -14.400196,-7.638226 -24.838308,-7.19725 -7.35909,0.310897 -10.113397,0.899923 -14.699085,3.143491 -7.373841,3.607684 -14.038992,10.482939 -18.031768,18.600179 -3.002304,6.10363 -3.2126,7.22231 -3.204763,17.04786 0.0078,9.84015 0.210115,10.90098 3.148994,16.51559 4.051705,7.74062 10.965525,14.67647 18.143535,18.20136 C 63.993348,165.2512 65.477907,165.5 75.5,165.5 c 11.765417,0 15.054702,-1.0191 23.334589,-7.22963 1.834021,-1.37566 3.689101,-2.11176 4.122391,-1.63578 C 104.34046,158.15437 120,185.10284 120,185.9639 c 0,1.20459 -8.57884,6.51765 -15.38161,9.52616 -11.051358,4.88744 -26.520765,7.0916 -38.425526,5.47507 z m 103.637996,0.0779 c -31.6521,-5.79001 -54.98773,-27.98771 -61.23919,-58.25295 -3.4818,-16.85649 -1.39656,-32.45573 6.49451,-48.583982 4.13139,-8.443999 6.41821,-11.690342 12.72516,-18.064553 14.01601,-14.16549 29.45714,-21.104438 48.7672,-21.915041 13.59697,-0.570778 22.71748,0.868832 32.53049,5.134715 30.99413,13.47368 49.12953,44.426131 44.98138,76.771631 -4.76389,37.1469 -33.63699,63.76041 -70.93859,65.38701 -4.7585,0.2075 -10.75293,-0.007 -13.32096,-0.47683 z m 26.29936,-39.78432 c 7.92504,-3.90397 14.9492,-11.06002 18.68972,-19.04065 2.34805,-5.0097 2.68006,-6.95951 2.68006,-15.7391 0,-9.31414 -0.23256,-10.49343 -3.29687,-16.71792 C 206.38977,93.889873 191.4042,85.911383 173.69442,88.193757 161.90406,89.713259 149.6645,99.080538 144.18006,110.78193 141.83319,115.78912 141.5,117.74322 141.5,126.5 c 0,8.73866 0.33557,10.71583 2.66041,15.67515 4.69711,10.01981 13.75903,18.06583 24.12563,21.42098 2.52456,0.81708 7.63178,1.27165 12.73918,1.13386 7.32483,-0.19761 9.45169,-0.68638 15.105,-3.47127 z"
         id="path2262" />
      <path
         style="fill:#f7b118"
         d="M 66.192864,200.96513 C 17.893883,194.4067 -11.057843,145.22843 6.7537135,100 10.693849,89.994916 16.368667,81.801682 24.948892,73.730022 45.136976,54.738521 72.65248,48.739496 99.14881,57.5527 c 7.35903,2.447758 19.94096,9.216535 20.55472,11.057944 0.16303,0.489146 -3.64106,7.664642 -8.45355,15.945548 L 102.5,99.612384 98.282311,96.39013 C 90.974405,90.806995 83.882115,88.751904 73.444003,89.19288 62.482576,89.655964 55.593358,92.57927 48.44991,99.798638 29.381403,119.0698 34.563936,150.80014 58.717153,162.66038 64.005744,165.2573 65.440163,165.5 75.5,165.5 c 11.765417,0 15.054702,-1.0191 23.334589,-7.22963 1.834021,-1.37566 3.689101,-2.11176 4.122391,-1.63578 C 104.34046,158.15437 120,185.10284 120,185.9639 c 0,1.20459 -8.57884,6.51765 -15.38161,9.52616 -11.051358,4.88744 -26.520765,7.0916 -38.425526,5.47507 z M 167.61888,200.39705 C 132.44975,194.04486 107,163.44034 107,127.5 c 0,-11.76062 2.41437,-21.7015 8.08618,-33.293892 4.13139,-8.443999 6.41821,-11.690342 12.72516,-18.064553 8.81565,-8.90967 18.21293,-14.843711 29.68866,-18.747318 6.44587,-2.192639 10.33119,-2.804031 20,-3.147184 15.30468,-0.543175 23.82861,1.186647 36.26787,7.360089 34.04154,16.894377 49.38481,56.717248 35.7793,92.863758 -9.15211,24.31492 -32.58546,42.78533 -58.93043,46.44958 -9.66527,1.34432 -13.08837,1.26641 -22.99786,-0.52343 z m 28.10349,-38.79129 c 7.62196,-3.49605 15.2999,-11.28318 19.08174,-19.35312 2.3658,-5.04827 2.69589,-6.97964 2.69589,-15.77367 0,-9.31414 -0.23256,-10.49343 -3.29687,-16.71792 C 206.38977,93.889873 191.4042,85.911383 173.69442,88.193757 161.90406,89.713259 149.6645,99.080538 144.18006,110.78193 141.83319,115.78912 141.5,117.74322 141.5,126.5 c 0,8.71498 0.33862,10.72218 2.63517,15.62001 4.51426,9.62756 11.56466,16.29423 21.75729,20.57311 8.15933,3.4253 21.0131,2.95675 29.82991,-1.08736 z"
         id="path2260" />
      <path
         style="fill:#f8af10"
         d="M 66.897663,200.86807 C 55.304798,199.72846 41.077761,194.30325 32,187.56051 4.5462255,167.16851 -5.7014332,131.62703 6.7537135,100 13.196197,83.640767 26.343154,69.438177 42.213086,61.693423 47.320889,59.200742 54.603277,56.412488 58.396172,55.497304 68.100693,53.155709 83.373918,53.347737 93.5,55.938658 c 7.83197,2.003936 19.61481,7.298478 24.41363,10.970105 l 2.41363,1.846694 -8.75646,15.122272 C 106.75475,92.194978 102.60109,99 102.34045,99 102.07981,99 100.43408,97.9264 98.683278,96.614221 90.559515,90.525686 87.217089,89.5 75.5,89.5 c -10.022093,0 -11.506652,0.248801 -16.699084,2.798638 -7.134363,3.503457 -14.144108,10.506472 -17.86311,17.845962 -14.160596,27.94607 9.501186,60.6997 40.270717,55.74442 6.622845,-1.06658 14.82371,-4.669 18.554721,-8.15059 1.365316,-1.27404 2.600706,-1.74029 3.113826,-1.17519 1.39118,1.53212 17.12293,28.57784 17.12293,29.4374 0,1.26927 -9.59175,7.06694 -15.92145,9.62362 -12.27045,4.95626 -23.703313,6.56869 -37.180887,5.24381 z m 100.721217,-0.47102 c -15.57536,-2.81319 -27.31842,-9.11314 -39.28692,-21.07676 -6.89328,-6.89048 -8.97987,-9.80634 -13.2386,-18.5 -6.48457,-13.23744 -8.57826,-23.23052 -7.81056,-37.2794 1.79741,-32.892561 23.78201,-59.58448 55.73063,-67.663608 6.9446,-1.756143 10.34479,-2.028287 20.4097,-1.63355 19.94602,0.782267 33.95555,6.620253 48.26122,20.111195 21.70461,20.468501 28.62732,51.517343 17.86282,80.115973 -9.15211,24.31492 -32.58546,42.78533 -58.93043,46.44958 -9.66527,1.34432 -13.08837,1.26641 -22.99786,-0.52343 z m 28.10349,-38.79129 c 7.62196,-3.49605 15.2999,-11.28318 19.08174,-19.35312 2.3658,-5.04827 2.69589,-6.97964 2.69589,-15.77367 0,-9.28914 -0.23785,-10.50417 -3.2567,-16.63632 C 208.44202,98.05857 199.66032,91.085722 187.36357,88.499585 169.87948,84.822498 152.03537,94.019 144.19589,110.74736 141.83127,115.79311 141.5,117.72881 141.5,126.5 c 0,8.71498 0.33862,10.72218 2.63517,15.62001 4.51426,9.62756 11.56466,16.29423 21.75729,20.57311 8.15933,3.4253 21.0131,2.95675 29.82991,-1.08736 z"
         id="path2258" />
      <path
         style="fill:#fcb800"
         d="m 167.61888,200.39705 c -15.29185,-2.76199 -27.2724,-9.10182 -38.59325,-20.42268 C 113.49615,164.4449 106.25754,145.78538 107.31141,124 c 1.60388,-33.155024 23.54728,-59.991466 55.70202,-68.122718 11.64756,-2.945421 28.92588,-2.324126 40.48657,1.455819 40.372,13.200248 61.14607,57.023729 46.04717,97.137799 -9.15211,24.31492 -32.58546,42.78533 -58.93043,46.44958 -9.66527,1.34432 -13.08837,1.26641 -22.99786,-0.52343 z m 28.10349,-38.79129 c 7.62196,-3.49605 15.2999,-11.28318 19.08174,-19.35312 2.3658,-5.04827 2.69589,-6.97964 2.69589,-15.77367 0,-9.31414 -0.23256,-10.49343 -3.29687,-16.71792 C 199.4725,79.838901 158.40954,80.417422 144.19589,110.74736 141.83127,115.79311 141.5,117.72881 141.5,126.5 c 0,8.71498 0.33862,10.72218 2.63517,15.62001 4.51426,9.62756 11.56466,16.29423 21.75729,20.57311 8.15933,3.4253 21.0131,2.95675 29.82991,-1.08736 z M 57.71978,199.49364 C 50.859219,197.75957 39.238237,192.44953 33.116034,188.25131 21.044744,179.97359 10.170204,165.62752 5.6369843,152 -3.8395288,123.51223 3.2136683,94.22195 24.33418,74.354927 33.028011,66.177068 40.315438,61.683488 51.334521,57.705948 c 6.882814,-2.484478 10.134841,-3.026692 20.702487,-3.451751 10.597493,-0.426259 13.832291,-0.176722 20.909699,1.613005 8.222563,2.079313 20.207523,7.375686 24.966923,11.033349 l 2.41363,1.854906 -8.75646,15.122272 C 106.75475,92.194978 102.60109,99 102.34045,99 102.07981,99 100.43408,97.9264 98.683278,96.614221 83.115663,84.946725 61.28632,86.370388 48.241134,99.903951 25.884213,123.09786 38.12961,160.87141 69.679232,166.03436 c 9.88879,1.61825 23.474278,-2.12806 30.084012,-8.29593 1.354826,-1.26426 2.596416,-1.73595 3.093326,-1.17519 2.40632,2.71555 17.15953,28.94666 16.79546,29.86221 -0.76936,1.9348 -11.65149,7.85963 -19.986551,10.8818 -7.299655,2.64674 -9.649964,2.99708 -22.165479,3.30404 -9.974286,0.24463 -15.662108,-0.0768 -19.78022,-1.11765 z"
         id="path2256" />
      <path
         style="fill:#fbb600"
         d="m 167.86192,200.4381 c -4.20094,-0.76033 -10.08973,-2.2997 -13.08619,-3.42082 -10.34288,-3.86977 -27.58486,-15.89907 -26.13985,-18.23713 0.39657,-0.64168 0.21049,-0.80323 -0.45293,-0.39322 -1.35753,0.839 -9.19823,-9.51213 -13.19682,-17.42217 C 109.27931,149.67546 107.5,141.72153 107.5,127.5 c 0,-14.6698 1.86242,-22.61373 8.0884,-34.5 18.43957,-35.203776 62.08225,-49.261817 97.9116,-31.538979 8.44497,4.177267 18.84722,12.168143 17.87915,13.734524 -0.37849,0.61241 -0.24177,0.837581 0.30384,0.50038 1.34368,-0.830441 7.34947,5.5787 11.52974,12.304075 15.25116,24.53666 15.04829,55.74203 -0.51883,79.80633 -11.5285,17.82125 -30.95985,30.177 -52.07716,33.11415 -9.6241,1.33859 -13.10096,1.26488 -22.75482,-0.48238 z m 27.86045,-38.83234 c 7.62196,-3.49605 15.2999,-11.28318 19.08174,-19.35312 2.3658,-5.04827 2.69589,-6.97964 2.69589,-15.77367 0,-9.31414 -0.23256,-10.49343 -3.29687,-16.71792 -14.73063,-29.922149 -55.79359,-29.343628 -70.00724,0.98631 -2.3658,5.04827 -2.69589,6.97964 -2.69589,15.77367 0,9.31094 0.23035,10.48012 3.25082,16.5 5.04244,10.0497 10.61802,15.26033 20.97938,19.60614 4.92445,2.06544 7.08842,2.37698 14.7698,2.12634 7.38043,-0.24082 10.11973,-0.80726 15.22237,-3.14775 z M 211.12756,96.25 c 1.24387,-1.586056 1.2085,-1.621426 -0.37756,-0.377555 C 209.08425,97.178814 208.55452,98 209.37756,98 c 0.20765,0 0.99515,-0.7875 1.75,-1.75 z m 4,-4 c 1.24387,-1.586056 1.2085,-1.621426 -0.37756,-0.377555 C 213.08425,93.178814 212.55452,94 213.37756,94 c 0.20765,0 0.99515,-0.7875 1.75,-1.75 z M 224,83.5 c 3.54322,-3.575 6.21722,-6.5 5.94222,-6.5 -0.275,0 -3.399,2.925 -6.94222,6.5 -3.54322,3.575 -6.21722,6.5 -5.94222,6.5 0.275,0 3.399,-2.925 6.94222,-6.5 z M 57.71978,199.49364 C 50.859219,197.75957 39.238237,192.44953 33.116034,188.25131 21.044744,179.97359 10.170204,165.62752 5.6369843,152 -3.8395288,123.51223 3.2136683,94.22195 24.33418,74.354927 33.028011,66.177068 40.315438,61.683488 51.334521,57.705948 c 6.882814,-2.484478 10.134841,-3.026692 20.702487,-3.451751 10.597493,-0.426259 13.832291,-0.176722 20.909699,1.613005 8.222563,2.079313 20.207523,7.375686 24.966923,11.033349 l 2.41363,1.854906 -8.75646,15.122272 C 106.75475,92.194978 102.60109,99 102.34045,99 102.07981,99 100.43408,97.9264 98.683278,96.614221 90.995211,90.852228 84.450921,88.755453 74.337208,88.8138 66.550018,88.858724 60.03414,90.922464 53.471372,95.422526 L 48.5,98.831374 36,86.665687 23.5,74.5 35.960558,87.225506 48.421117,99.951011 45.818022,102.72551 c -3.875654,4.13084 -7.643427,12.34476 -8.686373,18.93671 -4.062681,25.67815 19.099534,48.77822 44.368351,44.2493 6.511728,-1.16709 14.665863,-4.8162 18.263244,-8.17309 1.354826,-1.26426 2.596416,-1.73595 3.093326,-1.17519 2.40632,2.71555 17.15953,28.94666 16.79546,29.86221 -0.76936,1.9348 -11.65149,7.85963 -19.986551,10.8818 -7.299655,2.64674 -9.649964,2.99708 -22.165479,3.30404 -9.974286,0.24463 -15.662108,-0.0768 -19.78022,-1.11765 z M 30.5,174 c 2.708649,-2.75 4.699816,-5 4.424816,-5 -0.275,0 -2.716167,2.25 -5.424816,5 -2.708649,2.75 -4.699816,5 -4.424816,5 0.275,0 2.716167,-2.25 5.424816,-5 z m 9.5,-9.5 c 1.865783,-1.925 3.167334,-3.5 2.892334,-3.5 -0.275,0 -2.026551,1.575 -3.892334,3.5 -1.865783,1.925 -3.167334,3.5 -2.892334,3.5 0.275,0 2.026551,-1.575 3.892334,-3.5 z m 6.127555,-6.25 c 1.243871,-1.58606 1.208501,-1.62143 -0.377555,-0.37756 -0.9625,0.75485 -1.75,1.54235 -1.75,1.75 0,0.82304 0.821186,0.29331 2.127555,-1.37244 z"
         id="path2254" />
      <path
         style="fill:#f8ad0a"
         d="m 167.61888,200.39705 c -15.29185,-2.76199 -27.2724,-9.10182 -38.59325,-20.42268 C 113.49615,164.4449 106.25754,145.78538 107.31141,124 c 1.60388,-33.155024 23.54728,-59.991466 55.70202,-68.122718 11.64756,-2.945421 28.92588,-2.324126 40.48657,1.455819 40.372,13.200248 61.14607,57.023729 46.04717,97.137799 -9.15211,24.31492 -32.58546,42.78533 -58.93043,46.44958 -9.66527,1.34432 -13.08837,1.26641 -22.99786,-0.52343 z m -9.83742,-42.04412 c 7.78528,5.23911 13.88166,6.91493 23.52816,6.46761 10.82322,-0.50189 18.67339,-3.99462 25.71687,-11.44206 7.23237,-7.64717 10.34087,-14.86056 10.80304,-25.06886 0.43672,-9.6463 -1.24425,-15.75293 -6.4766,-23.52816 L 207.89144,99.637702 220.19572,87.068851 232.5,74.5 220,86.703737 l -12.5,12.203737 -4,-3.071349 C 183.42859,80.424551 155.06393,87.556468 144.19589,110.74736 141.86092,115.72985 141.5,117.77183 141.5,126 c 0,10.92691 1.6847,16.46864 7.2051,23.70075 l 3.49115,4.57365 -12.34813,12.6128 L 127.5,179.5 140.06885,167.19572 152.6377,154.89144 Z M 57.5,199.45736 c -8.140106,-2.03135 -22.935222,-9.52151 -28.834943,-14.59794 l -4.834942,-4.16025 12.285633,-12.3152 12.285634,-12.3152 3.315974,2.52922 c 8.157059,6.22169 19.85166,9.09346 29.782644,7.31353 6.511728,-1.16709 14.665863,-4.8162 18.263244,-8.17309 1.354826,-1.26426 2.596416,-1.73595 3.093326,-1.17519 2.40632,2.71555 17.15953,28.94666 16.79546,29.86221 -0.76936,1.9348 -11.65149,7.85963 -19.986551,10.8818 -7.299655,2.64674 -9.649964,2.99708 -22.165479,3.30404 -10.09076,0.24748 -15.675388,-0.0747 -20,-1.15393 z M 19.365876,176.16535 C 13.908945,169.78348 8.2101518,159.75491 5.6337804,152 -3.8359045,123.49615 3.2149102,94.220782 24.33418,74.354927 33.028011,66.177068 40.315438,61.683488 51.334521,57.705948 c 6.882814,-2.484478 10.134841,-3.026692 20.702487,-3.451751 10.597493,-0.426259 13.832291,-0.176722 20.909699,1.613005 8.222563,2.079313 20.207523,7.375686 24.966923,11.033349 l 2.41363,1.854906 -8.75646,15.122272 C 106.75475,92.194978 102.60109,99 102.34045,99 102.07981,99 100.43408,97.9264 98.683278,96.614221 90.995211,90.852228 84.450921,88.755453 74.337208,88.8138 66.550018,88.858724 60.03414,90.922464 53.471372,95.422526 L 48.5,98.831374 36,86.665687 23.5,74.5 35.960558,87.225506 48.421117,99.951011 45.818022,102.72551 C 33.976803,115.3464 33.876379,138.36848 45.60176,152.3033 l 2.543239,3.02247 -12.307494,12.33712 c -6.769121,6.78541 -12.539246,12.29902 -12.822499,12.25246 -0.283253,-0.0465 -1.925362,-1.73405 -3.64913,-3.75 z"
         id="path2252" />
      <path
         style="fill:#eb8b38"
         d="m 167.61888,200.39705 c -15.29185,-2.76199 -27.2724,-9.10182 -38.59325,-20.42268 C 113.61064,164.55939 105.98607,144.71762 107.32428,123.5 109.09509,95.423485 124.12568,73.097698 149.5,60.854041 c 11.20371,-5.406033 20.30043,-7.141335 34.5,-6.581265 19.28263,0.76056 33.18915,6.61012 47.58042,20.013952 25.73413,23.968429 30.4476,63.632122 11.11348,93.519602 -11.5285,17.82125 -30.95985,30.177 -52.07716,33.11415 -9.66527,1.34432 -13.08837,1.26641 -22.99786,-0.52343 z m -9.83742,-42.04412 c 7.78528,5.23911 13.88166,6.91493 23.52816,6.46761 10.82322,-0.50189 18.67339,-3.99462 25.71687,-11.44206 7.23237,-7.64717 10.34087,-14.86056 10.80304,-25.06886 0.43672,-9.6463 -1.24425,-15.75293 -6.4766,-23.52816 L 207.89144,99.637702 220.19572,87.068851 232.5,74.5 220,86.647925 207.5,98.79585 203,95.411698 c -9.32878,-7.015556 -20.5546,-9.486339 -31.53282,-6.94032 -8.64119,2.004027 -13.70213,4.934236 -19.82153,11.476364 -7.07229,7.560848 -10.03604,14.655698 -10.46517,25.052258 -0.41232,9.98954 1.76781,17.15892 7.50236,24.67159 l 3.51341,4.60281 -12.34813,12.6128 L 127.5,179.5 140.06885,167.19572 152.6377,154.89144 Z M 62.5,200.35148 C 48.470772,197.42973 35.367199,191.12625 26.725277,183.142 l -2.774723,-2.56355 12.173895,-12.2032 12.173894,-12.20319 4.841894,3.33063 c 13.450216,9.25212 32.222682,9.20989 44.419207,-0.0999 C 100.01127,157.53124 102.19664,156 102.41582,156 c 0.21919,0 4.33893,6.80502 9.15498,15.12227 l 8.75646,15.12227 -2.41363,1.8467 c -4.81333,3.68273 -16.58863,8.96726 -24.323593,10.91597 -7.40946,1.8667 -24.941582,2.62475 -31.090037,1.34427 z M 19.365876,176.16535 C 13.908945,169.78348 8.2101518,159.75491 5.6337804,152 -3.8459135,123.46602 3.2836263,93.972478 24.419583,74.286728 38.975299,60.729727 52.684719,55.023886 72.576873,54.243732 c 10.064908,-0.394737 13.465092,-0.122593 20.409698,1.63355 8.175619,2.067441 20.174779,7.370808 24.907699,11.008665 l 2.39427,1.840301 -8.74235,15.136876 C 106.73789,92.188406 102.45307,99 102.02436,99 101.59565,99 100.65421,98.288279 99.932277,97.418399 97.612958,94.623791 87.394061,90.107137 81.095707,89.092816 70.975511,87.463006 59.484196,90.336323 51.702251,96.44243 L 48.5,98.955079 36,86.727539 23.5,74.5 35.960558,87.225506 48.421117,99.951011 45.818022,102.72551 C 33.976803,115.3464 33.876379,138.36848 45.60176,152.3033 l 2.543239,3.02247 -12.307494,12.33712 c -6.769121,6.78541 -12.539246,12.29902 -12.822499,12.25246 -0.283253,-0.0465 -1.925362,-1.73405 -3.64913,-3.75 z"
         id="path2250" />
      <path
         style="fill:#f8aa00"
         d="m 171.38806,200.99546 c -18.95035,-2.61693 -36.01714,-12.1107 -47.67401,-26.51969 -5.77671,-7.14055 -12.04877,-19.51445 -14.43376,-28.47577 -2.36057,-8.86957 -2.36057,-28.13043 0,-37 4.03954,-15.178119 14.1781,-30.639457 25.91053,-39.513641 C 150.14794,58.173076 165.05809,53.525655 184,54.272776 204.28346,55.072812 218.2215,61.248491 233.0367,76 c 14.21263,14.151532 21.02475,30.37466 21.20505,50.5 0.19785,22.08434 -7.13248,39.49537 -23.00649,54.64513 -15.81026,15.08892 -38.89065,22.74431 -59.8472,19.85033 z m -13.6066,-42.64253 c 7.95778,5.3552 13.94085,6.95673 24.07895,6.4454 6.90642,-0.34833 9.79302,-1.00615 14.38925,-3.27913 7.40169,-3.66037 14.06457,-10.27412 18.07104,-17.93776 3.01114,-5.75979 3.1793,-6.66324 3.1793,-17.08144 0,-10.15426 -0.21992,-11.42287 -2.86031,-16.5 -1.57317,-3.025 -3.80236,-6.5266 -4.95374,-7.78133 L 207.59251,99.937348 220.04626,87.218674 232.5,74.5 220,86.647925 207.5,98.79585 203,95.411698 c -9.32878,-7.015556 -20.5546,-9.486339 -31.53282,-6.94032 -8.64119,2.004027 -13.70213,4.934236 -19.82153,11.476364 -7.07229,7.560848 -10.03604,14.655698 -10.46517,25.052258 -0.41232,9.98954 1.76781,17.15892 7.50236,24.67159 l 3.51341,4.60281 -12.34813,12.6128 L 127.5,179.5 140.06885,167.19572 152.6377,154.89144 Z M 62.5,200.35148 c -29.268041,-6.0954 -51.314133,-26.42763 -58.622029,-54.06476 -2.8306315,-10.70494 -2.8306315,-26.8685 0,-37.57344 C 7.2832733,95.835047 13.161204,85.759958 22.963301,76 37.936676,61.090995 51.682652,55.063186 72.576873,54.243732 c 10.064908,-0.394737 13.465092,-0.122593 20.409698,1.63355 8.175619,2.067441 20.174779,7.370808 24.907699,11.008665 l 2.39427,1.840301 -8.74235,15.136876 C 106.73789,92.188406 102.45307,99 102.02436,99 101.59565,99 100.65421,98.288279 99.932277,97.418399 97.612958,94.623791 87.394061,90.107137 81.095707,89.092816 70.975511,87.463006 59.484196,90.336323 51.702251,96.44243 L 48.5,98.955079 36,86.727539 23.5,74.5 35.822499,87.087114 48.144999,99.674228 45.60176,102.6967 c -7.363092,8.75053 -10.509929,21.07566 -8.204297,32.13353 1.606934,7.7069 2.95399,10.71087 7.475128,16.66977 l 3.034883,4 L 35.703737,168 23.5,180.5 36,168.29626 l 12.5,-12.20373 3.914145,2.9433 c 12.832837,9.64985 32.771704,9.81191 45.145299,0.36693 C 100.01127,157.53124 102.19664,156 102.41582,156 c 0.21919,0 4.33893,6.80502 9.15498,15.12227 l 8.75646,15.12227 -2.41363,1.8467 c -4.81333,3.68273 -16.58863,8.96726 -24.323593,10.91597 -7.40946,1.8667 -24.941582,2.62475 -31.090037,1.34427 z"
         id="path2248" />
      <path
         style="fill:#f5a202"
         d="m 171.38806,200.99546 c -12.71311,-1.7556 -23.46111,-6.01149 -33.73439,-13.35781 -11.18238,-7.99641 -11.38741,-6.43808 2.69549,-20.48718 l 12.28854,-12.25903 5.14376,3.46149 c 7.95778,5.3552 13.94085,6.95673 24.07895,6.4454 6.90642,-0.34833 9.79302,-1.00615 14.38925,-3.27913 7.40169,-3.66037 14.06457,-10.27412 18.07104,-17.93776 3.01114,-5.75979 3.1793,-6.66324 3.1793,-17.08144 0,-10.15426 -0.21992,-11.42287 -2.86031,-16.5 -1.57317,-3.025 -3.80236,-6.5266 -4.95374,-7.78133 l -2.09344,-2.281322 12.45375,-12.52986 12.45374,-12.529861 4.72053,5.218729 c 10.4491,11.55189 16.86571,29.044994 17.02122,46.403644 0.19785,22.08434 -7.13248,39.49537 -23.00649,54.64513 -15.81026,15.08892 -38.89065,22.74431 -59.8472,19.85033 z M 18.79116,175.11262 C 8.0946996,163.21558 1.8189831,145.6101 1.8189831,127.5 c 0,-18.2326 6.1681786,-35.472324 16.9604879,-47.403644 L 23.5,74.877627 l 12.322499,12.398301 12.3225,12.3983 -2.543239,3.022472 c -6.928709,8.2343 -10.377601,20.72874 -8.513009,30.84042 1.405733,7.62328 3.061518,11.53736 7.354918,17.38614 l 3.455503,4.70734 -12.289354,12.25985 -12.289353,12.25984 z"
         id="path2246" />
      <path
         style="fill:#e98229"
         d="m 171.38806,200.99546 c -12.72165,-1.75678 -23.44208,-6.00411 -33.78695,-13.38606 -10.41849,-7.43448 -10.65259,-6.0241 3.32557,-20.03591 l 12.2738,-12.30333 4.86237,3.27213 c 7.67507,5.16495 13.75269,6.76267 23.79756,6.25604 6.90642,-0.34833 9.79302,-1.00615 14.38925,-3.27913 7.40169,-3.66037 14.06457,-10.27412 18.07104,-17.93776 3.01114,-5.75979 3.1793,-6.66324 3.1793,-17.08144 0,-10.15426 -0.21992,-11.42287 -2.86031,-16.5 -1.57317,-3.025 -3.80236,-6.5266 -4.95374,-7.78133 l -2.09344,-2.281322 12.45375,-12.52986 12.45374,-12.529861 4.72053,5.218729 c 10.4491,11.55189 16.86571,29.044994 17.02122,46.403644 0.19785,22.08434 -7.13248,39.49537 -23.00649,54.64513 -15.81026,15.08892 -38.89065,22.74431 -59.8472,19.85033 z M 18.79116,175.11262 C 8.0946996,163.21558 1.8189831,145.6101 1.8189831,127.5 c 0,-18.2263 6.1552803,-35.436142 16.9604879,-47.420651 L 23.5,74.843613 35.790368,87.297107 48.080735,99.750601 45.569629,102.73488 c -6.896219,8.19569 -10.341861,20.71014 -8.480878,30.80224 1.405733,7.62328 3.061518,11.53736 7.354918,17.38614 l 3.455503,4.70734 -12.289354,12.25985 -12.289353,12.25984 z"
         id="path2244" />
      <path
         style="fill:#f19406"
         d="m 171.45548,200.92717 c -13.25489,-1.56744 -28.75217,-8.39869 -38.66063,-17.04173 L 128.5,180.1391 l 12.41228,-12.49666 12.41228,-12.49667 3.08772,2.3129 c 8.02554,6.01162 11.40185,7.04133 23.08772,7.04133 10.05668,0 11.49569,-0.24328 16.78016,-2.83689 7.23486,-3.55085 14.45385,-10.79985 18.27922,-18.3552 2.72395,-5.37996 2.94062,-6.61843 2.94062,-16.80791 0,-10.10594 -0.2296,-11.44703 -2.82481,-16.5 -1.55365,-3.025 -3.78283,-6.5266 -4.95375,-7.78133 l -2.12893,-2.281322 12.45375,-12.52986 12.45374,-12.529861 4.83061,5.311187 c 5.82187,6.40106 12.99448,20.685286 15.22032,30.311186 2.28858,9.89723 2.077,25.9414 -0.47193,35.78672 -3.3595,12.97618 -9.17435,22.88339 -19.53894,33.28998 -7.46449,7.49475 -10.64137,9.8769 -18.22777,13.66793 -13.4475,6.71991 -28.37246,9.39537 -42.85681,7.68254 z M 18.586587,174.83418 C 12.82054,168.312 5.6368267,153.93381 3.4308539,144.5 c -2.1203595,-9.06769 -2.1203595,-24.93231 0,-34 2.208057,-9.44273 9.3913221,-23.813813 15.1710041,-30.351632 l 4.731048,-5.351633 12.204248,12.280777 12.204248,12.280777 -4.2722,6.240191 C 39.563441,111.30343 36,121.75231 36,127.5 c 0,5.76828 3.56359,16.19679 7.498955,21.94498 l 4.301952,6.28365 -12.249272,12.21986 -12.249271,12.21986 z"
         id="path2242" />
      <path
         style="fill:#e87d21"
         d="m 171.45548,200.92717 c -13.25489,-1.56744 -28.75217,-8.39869 -38.66063,-17.04173 L 128.5,180.1391 l 12.41228,-12.49666 12.41228,-12.49667 3.08772,2.3129 c 8.02554,6.01162 11.40185,7.04133 23.08772,7.04133 10.05668,0 11.49569,-0.24328 16.78016,-2.83689 7.23486,-3.55085 14.45385,-10.79985 18.27922,-18.3552 2.72395,-5.37996 2.94062,-6.61843 2.94062,-16.80791 0,-10.10594 -0.2296,-11.44703 -2.82481,-16.5 -1.55365,-3.025 -3.68672,-6.42429 -4.74015,-7.55397 -1.90685,-2.04486 -1.85972,-2.10958 10.62951,-14.598816 l 12.54485,-12.544853 4.5099,5.09882 c 5.59846,6.329537 12.78523,20.816459 14.93163,30.098819 2.28858,9.89723 2.077,25.9414 -0.47193,35.78672 -3.3595,12.97618 -9.17435,22.88339 -19.53894,33.28998 -7.46449,7.49475 -10.64137,9.8769 -18.22777,13.66793 -13.4475,6.71991 -28.37246,9.39537 -42.85681,7.68254 z M 18.617147,174.86911 C 12.823813,168.31562 5.6409926,153.95163 3.4308539,144.5 c -2.1203595,-9.06769 -2.1203595,-24.93231 0,-34 2.1803583,-9.32427 9.3697771,-23.790008 14.9710531,-30.123058 l 4.531097,-5.123058 12.163015,12.30301 12.163015,12.30301 -4.047267,6.060826 C 39.547174,111.40851 36,122.02247 36,127.5 c 0,5.48393 3.547281,16.09165 7.220692,21.59263 l 4.05619,6.07419 -6.07704,6.16659 c -3.342373,3.39163 -8.722887,9.03269 -11.956699,12.5357 l -5.879659,6.36911 z"
         id="path2240" />
      <path
         style="fill:#f08f04"
         d="m 162.02062,198.93185 c -4.11367,-1.07691 -10.18867,-3.23689 -13.5,-4.79996 -5.69535,-2.6884 -17.75171,-11.07876 -19.13457,-13.31627 -0.3513,-0.5684 4.91311,-6.59866 11.69869,-13.40056 12.25183,-12.28132 12.35155,-12.35391 14.37633,-10.46589 8.61278,8.03103 26.88725,10.69765 38.89689,5.67586 9.95037,-4.16071 19.16068,-14.17743 22.25063,-24.19877 3.37742,-10.95364 1.35384,-24.90749 -4.88453,-33.6819 L 208.3695,100.0261 220.43475,87.709956 232.5,75.393809 l 4.83061,5.053096 c 5.91399,6.186377 13.13428,20.529895 15.16882,30.133735 1.90863,9.00949 1.88385,26.15481 -0.0497,34.41936 -0.83642,3.575 -3.58756,10.76068 -6.11365,15.96818 -3.90297,8.0459 -5.96788,10.84316 -13.74629,18.62156 -7.7784,7.77841 -10.57566,9.84332 -18.62156,13.74629 -5.2075,2.52609 -12.39318,5.27723 -15.96818,6.11365 -9.33945,2.18508 -26.60377,1.93661 -35.97938,-0.51783 z M 18.638609,174.86911 C 13.471951,168.99798 6.8174069,156.63908 4.497945,148.6069 -2.1990943,125.4154 3.7319979,97.082706 18.888374,79.864154 l 4.051767,-4.603051 12.18332,12.323548 12.183319,12.323549 -3.625935,5.2959 c -5.261461,7.68469 -6.930269,13.03331 -6.956474,22.2959 -0.02564,9.06218 1.912057,15.20432 7.239264,22.94714 l 3.274277,4.759 -6.057556,6.14693 c -3.331655,3.38081 -8.703401,9.01303 -11.937213,12.51604 l -5.879659,6.36911 z"
         id="path2238" />
      <path
         style="fill:#e87817"
         d="m 162.02062,198.93185 c -4.11367,-1.07691 -10.18867,-3.23689 -13.5,-4.79996 -5.69535,-2.6884 -17.75171,-11.07876 -19.13457,-13.31627 -0.3513,-0.5684 4.91311,-6.59866 11.69869,-13.40056 12.25183,-12.28132 12.35155,-12.35391 14.37633,-10.46589 8.61278,8.03103 26.88725,10.69765 38.89689,5.67586 9.95037,-4.16071 19.16068,-14.17743 22.25063,-24.19877 3.30749,-10.72683 1.32964,-25.07007 -4.5824,-33.2314 C 210.36179,102.89721 209,100.66889 209,100.24303 c 0,-0.425863 5.43299,-6.167259 12.07332,-12.758662 L 233.14663,75.5 l 4.49511,5 c 5.66112,6.296972 12.94197,21.03767 14.85769,30.08064 1.90863,9.00949 1.88385,26.15481 -0.0497,34.41936 -0.83642,3.575 -3.58756,10.76068 -6.11365,15.96818 -3.90297,8.0459 -5.96788,10.84316 -13.74629,18.62156 -7.7784,7.77841 -10.57566,9.84332 -18.62156,13.74629 -5.2075,2.52609 -12.39318,5.27723 -15.96818,6.11365 -9.33945,2.18508 -26.60377,1.93661 -35.97938,-0.51783 z M 18.048602,174.25 C 13.378891,168.8492 6.685765,156.18321 4.497945,148.6069 -2.1935739,125.43452 3.8259131,96.688351 18.875083,79.948632 L 22.874446,75.5 35.109214,87.677093 47.343981,99.854185 43.699446,105.17709 c -5.280246,7.71189 -6.948847,13.05205 -6.975075,22.32291 -0.02564,9.06455 1.912041,15.20429 7.244411,22.95463 l 3.279424,4.76648 -11.858471,11.88944 C 28.867576,173.64975 23.221742,179 22.843438,179 c -0.378305,0 -2.535981,-2.1375 -4.794836,-4.75 z"
         id="path2236" />
      <path
         style="fill:#e77009"
         d="m 162.5,199.09798 c -12.05023,-3.29787 -21.87709,-8.42822 -30.5,-15.92326 l -3.5,-3.04221 12.40652,-12.48759 12.40652,-12.4876 3.59348,2.85818 c 8.67553,6.90035 24.50509,9.40942 35.05079,5.55575 11.29654,-4.12805 20.99874,-13.907 24.62795,-24.82278 3.58579,-10.78516 1.62342,-25.01894 -4.64165,-33.66761 C 210.32463,102.84591 209,100.66889 209,100.24303 c 0,-0.425863 5.43299,-6.167259 12.07332,-12.758662 L 233.14663,75.5 l 4.45402,5 c 5.6494,6.341919 12.78074,20.86958 14.8233,30.19741 2.01726,9.2123 2.01726,24.39288 0,33.60518 -0.86683,3.95858 -3.66104,11.47241 -6.20937,16.69741 -3.83788,7.86908 -6.09953,10.97654 -13.17395,18.10076 -9.27702,9.34233 -17.32333,14.45329 -29.35065,18.64332 -10.07949,3.51145 -30.81588,4.19305 -41.18998,1.3539 z M 18.067975,174.25 C 12.65107,167.95534 5.5355848,153.25126 3.5760511,144.30259 0.31529761,129.4116 2.1037203,110.46784 8.0074937,97.362796 11.085774,90.529709 17.601513,80.537537 20.925608,77.552299 l 2.168787,-1.9477 12.08108,12.08108 12.08108,12.08108 -3.283599,4.772551 c -5.376883,7.81503 -7.324584,13.92057 -7.324584,22.96069 0,9.03822 1.947719,15.14569 7.32041,22.95463 l 3.279424,4.76648 -11.858471,11.88944 C 28.867576,173.64975 23.221742,179 22.843438,179 c -0.378305,0 -2.527263,-2.1375 -4.775463,-4.75 z"
         id="path2234" />
      <path
         style="fill:#e56a0a"
         d="m 129,180.46936 c 0,-1.30592 23.77812,-25.02457 24.4319,-24.37079 0.27483,0.27483 -5.10992,6.09583 -11.9661,12.93555 C 134.60961,175.87385 129,181.01971 129,180.46936 Z M 33.965877,166.5342 C 40.805603,159.67802 46.626603,154.29327 46.901433,154.5681 47.555212,155.22188 23.836561,179 22.530638,179 c -0.550344,0 4.595513,-5.60961 11.435239,-12.4658 z m 0,-78.068405 C 27.126151,81.609608 21.980294,76 22.530638,76 c 1.305923,0 25.024574,23.778121 24.370795,24.4319 -0.27483,0.27483 -6.09583,-5.109917 -12.935556,-11.966105 z M 209,100.46936 c 0,-1.305921 23.77812,-25.024572 24.4319,-24.370793 0.27483,0.27483 -5.10992,6.09583 -11.9661,12.935556 C 214.60961,95.873849 209,101.01971 209,100.46936 Z"
         id="path2232" />
      <path
         style="fill:#e3640c"
         d="m 34.5,167 c 6.582805,-6.6 12.193736,-12 12.468736,-12 0.275,0 -4.885931,5.4 -11.468736,12 -6.582805,6.6 -12.193736,12 -12.468736,12 -0.275,0 4.885931,-5.4 11.468736,-12 z m 0,-79 C 27.917195,81.4 22.756264,76 23.031264,76 c 0.275,0 5.885931,5.4 12.468736,12 6.582805,6.6 11.743736,12 11.468736,12 -0.275,0 -5.885931,-5.4 -12.468736,-12 z m 186,0 c 6.58281,-6.6 12.19374,-12 12.46874,-12 0.275,0 -4.88593,5.4 -11.46874,12 -6.58281,6.6 -12.19374,12 -12.46874,12 -0.275,0 4.88593,-5.4 11.46874,-12 z"
         id="path2230" />
    </g>
    <g
       id="g1088"
       transform="translate(-12.929953,205.0958)" />
  </g>
</svg>
