<svg version="1.2" baseProfile="tiny-ps" xmlns="http://www.w3.org/2000/svg" viewBox="0 0 528 795" width="528" height="795">
	<title>flask</title>
	<style>
		tspan { white-space:pre }
		.shp0 { fill: #ffffff } 
		.shp1 { fill: #050708 } 
		.shp2 { fill: #000000 } 
	</style>
	<g id="Background">
		<path id="Path 0" class="shp0" d="M200 11.06C189.82 11.47 174.75 12.32 166.5 12.95C158.25 13.57 143.4 14.97 133.5 16.05C123.6 17.14 108.08 19.17 99 20.56C89.92 21.96 76.99 24.21 70.25 25.55C63.51 26.9 53.61 29.4 48.25 31.1C42.89 32.81 35.13 35.95 31 38.07C26.88 40.19 21.52 43.63 19.11 45.71C16.7 47.8 13.68 51.3 12.41 53.5C11.14 55.7 9.4 60.54 8.55 64.25C7.17 70.26 7.03 97.72 7.25 314.25L7.5 557.5L518.5 557.5C519 134.56 518.78 68.92 517.94 64.5C517.31 61.2 516.17 57.26 515.4 55.75C514.63 54.24 512.31 51.12 510.25 48.83C508.19 46.54 503.8 42.92 500.5 40.79C497.2 38.66 491.13 35.62 487 34.04C482.88 32.46 474.77 29.96 469 28.5C463.23 27.03 449.5 24.32 438.5 22.48C427.5 20.64 411.07 18.21 402 17.08C392.93 15.95 377.18 14.35 367 13.53C356.82 12.7 337.25 11.58 323.5 11.02C309.75 10.47 280.5 10.09 258.5 10.17C236.5 10.25 210.18 10.65 200 11.06Z" />
		<path id="Path 1" class="shp1" d="M108.5 138.45C107.17 139.8 106.07 141.83 106.05 142.95C106.02 144.08 106.63 146.24 107.4 147.75C108.17 149.26 110.2 151.51 111.9 152.75C113.94 154.23 115 155.86 115 157.5C115 159.4 113.43 161.21 108.5 165C104.92 167.75 101.99 170.56 101.98 171.25C101.97 171.94 102.64 173.96 103.48 175.75C104.65 178.25 104.77 179.81 104 182.5C103.45 184.43 101.99 186.68 100.75 187.51C99.51 188.34 96.47 189.49 94 190.07C91.53 190.65 88.48 192.11 87.22 193.31C85.76 194.72 84.96 196.65 84.97 198.75C84.99 200.84 85.63 202.3 86.75 202.85C88.21 203.55 87.77 204.1 84 206.21C81.53 207.59 77.81 210.7 75.74 213.11C73.31 215.94 71.57 219.28 70.84 222.5C69.9 226.6 69.98 228.31 71.24 232C72.09 234.47 74.03 239.43 75.54 243C77.05 246.57 80.88 259.85 84.05 272.5C87.21 285.15 91.46 300 93.49 305.5C95.51 311 100.71 322.7 105.04 331.5C109.37 340.3 115.9 352.23 119.55 358C123.2 363.77 130.08 373.67 134.84 379.98C139.61 386.3 146.43 394.43 150 398.06C153.57 401.68 161 408.21 166.5 412.56C172 416.91 180.32 422.86 185 425.78C189.68 428.7 197.55 433.06 202.5 435.46C207.45 437.87 216.22 441.39 222 443.3C227.78 445.2 236.78 447.7 242 448.84C247.22 449.98 257.13 451.58 264 452.4C270.88 453.23 283.48 454.43 292 455.09C300.92 455.77 313.44 456.01 321.5 455.65C329.2 455.3 339.1 454.54 343.5 453.95C347.9 453.37 355.32 452.52 360 452.06C364.68 451.6 372.89 449.83 378.25 448.11C383.61 446.4 389.01 444.99 390.25 444.98C391.49 444.97 393.85 445.45 395.5 446.04C397.98 446.93 399.19 446.76 402.5 445.05C404.7 443.91 410.55 442.27 415.5 441.41C420.45 440.55 425.51 439.21 426.75 438.42C428.47 437.33 429 436.06 429 433C429 430.78 428.33 428.33 427.5 427.5C426.32 426.32 423.62 426.04 414.75 426.21C405.62 426.38 402.98 426.09 400.75 424.71C398.35 423.22 397.78 423.18 396.25 424.43C395.29 425.22 393.38 426.3 392 426.83C390.2 427.53 387.41 427.3 382 426C376.64 424.72 372.73 424.39 368.3 424.85C362.94 425.41 362.03 425.27 361.55 423.75C361.21 422.66 362.28 420.39 364.39 417.75C366.25 415.41 368.39 412.22 369.14 410.65C370.37 408.06 370.31 407.66 368.5 406.38C367.4 405.6 365.71 404.97 364.75 404.98C363.79 404.99 361.31 405.77 359.25 406.72C357.19 407.66 352.21 411.83 348.2 415.97L340.9 423.5C328.19 420.65 319.1 418.08 312.5 415.95C305.9 413.82 296.23 409.9 291 407.24C285.77 404.58 277.48 399.73 272.57 396.46C267.66 393.18 260.27 387.35 256.14 383.5C252.01 379.65 243.88 370.78 238.06 363.78C232.25 356.79 225.14 347.34 222.26 342.78C219.11 337.8 215.39 329.91 212.93 323C210.69 316.68 207.78 307 206.47 301.5C205.15 296 203.39 286.32 202.55 280C201.71 273.68 200.32 258.6 199.45 246.5C198.59 234.4 197.86 222.47 197.82 220C197.78 217.53 198.25 214.49 198.87 213.25C199.49 212.01 201.01 210.59 202.25 210.08C203.49 209.58 206.07 209.52 208 209.95C209.93 210.39 214.43 211.73 218 212.94C221.96 214.28 226.23 215.01 228.92 214.82C231.35 214.64 233.5 214.05 233.7 213.5C233.9 212.95 233.03 210.96 231.78 209.08C230.43 207.05 226.86 204.22 223 202.13C219.43 200.19 211.1 196.74 204.5 194.47C197.9 192.19 190.03 188.7 187 186.69C183.97 184.69 180.03 182.7 178.23 182.27C176.06 181.76 174.96 180.91 174.98 179.75C174.99 178.79 173.76 177.08 172.25 175.96C170.74 174.84 167.93 173.68 166 173.38C164.07 173.08 159.8 172.18 156.5 171.38C153.2 170.57 149.82 169.25 149 168.43C148.14 167.57 147.5 165.14 147.5 162.72L147.5 158.5C131.38 157.66 127.75 157.02 126.59 156C125.15 154.73 124.99 153.42 125.59 147.5C126.28 140.61 126.24 140.46 123.4 138.22C121.27 136.54 119.22 135.94 115.7 135.97C111.96 135.99 110.38 136.54 108.5 138.45Z" />
		<path id="Path 2" class="shp0" d="M114.33 138.09C113.27 138.53 111.87 139.81 111.21 140.94C110.54 142.07 110 143.34 110 143.75C110 144.16 112.55 144.5 115.67 144.5C119.36 144.5 121.45 144.06 121.67 143.25C121.85 142.56 121.61 141.21 121.13 140.25C120.65 139.29 119.36 138.23 118.25 137.9C117.15 137.57 115.38 137.66 114.33 138.09ZM130.88 162.32C128.51 163.37 128.51 163.38 131.5 163.73C133.15 163.93 134.85 163.73 135.29 163.29C135.72 162.86 135.44 162.22 134.66 161.88C133.89 161.54 132.18 161.74 130.88 162.32ZM132.16 172.39C132.07 173.28 132.63 175.24 133.4 176.75C134.18 178.26 135.87 180.47 137.15 181.66C138.44 182.85 140.18 183.92 141 184.03C141.82 184.14 143.18 184.19 144 184.14C145.16 184.07 145.33 183.36 144.75 181.02C144.23 178.94 144.39 177.86 145.25 177.56C146.11 177.26 145.87 176.63 144.5 175.53C143.4 174.65 140.7 173.44 138.5 172.85C136.3 172.25 134.01 171.55 133.41 171.28C132.81 171.01 132.24 171.51 132.16 172.39ZM125.52 179.2C123.34 179.75 121.65 180.6 121.77 181.1C121.9 181.59 124.59 182.01 127.75 182.03C133.38 182.06 133.47 182.02 131.92 180.03C131.05 178.91 130.15 178.05 129.92 178.1C129.69 178.16 127.71 178.65 125.52 179.2ZM152 184.47C149.53 185.18 143.68 186.75 139 187.96C134.32 189.17 128.7 190.68 126.5 191.31L122.5 192.45C134.9 193.35 139.33 194.04 140.35 194.56C141.88 195.33 142.1 195.19 141.6 193.75C141.27 192.79 141.22 191.55 141.5 191C141.78 190.45 142.73 190.34 143.62 190.75C144.51 191.16 146.08 192.96 147.12 194.75C148.15 196.54 150.01 198.28 151.25 198.61C152.81 199.03 153.89 198.65 154.77 197.36C155.46 196.34 156.03 194.49 156.02 193.25C156.01 192.01 156.45 191 157 191C157.55 191 158.22 191.45 158.5 192C158.78 192.55 159.45 193 160 193C160.55 193 160.32 191.88 159.5 190.5C158.41 188.68 158.27 187.45 159 186C159.76 184.48 159.64 183.88 158.5 183.5C157.68 183.22 156.89 183.04 156.75 183.09C156.61 183.14 154.47 183.76 152 184.47ZM172 196.64C166.78 197.43 157.55 199.41 151.5 201.05C145.45 202.68 136 205.35 130.5 206.97C125 208.6 117.46 210.39 113.75 210.96C110.04 211.53 106.78 212.45 106.5 213C106.22 213.55 107.13 214.79 108.51 215.75C110.56 217.18 110.79 217.75 109.76 218.85C108.74 219.94 108.79 220.37 110 221.07C110.83 221.55 112.17 222.41 113 222.97C114.33 223.89 114.33 224.11 113 225.03C112.17 225.6 109.7 225.82 107.5 225.51C105.3 225.2 102.38 224.12 101 223.12C99.4 221.96 98.41 220.17 98.25 218.15L98 215C91.41 216.65 87.7 217.93 85.5 218.92C83.3 219.9 80.6 221.72 79.5 222.96C78.24 224.37 77.52 226.56 77.56 228.85C77.59 230.86 78.37 233.74 79.31 235.25C80.24 236.76 81.34 238 81.75 237.99C82.16 237.99 82.5 235.33 82.5 232.08C82.5 227.14 82.91 225.74 85 223.56C86.53 221.96 88.57 220.96 90.25 220.97C91.76 220.99 93 221.22 93 221.5C93 221.78 92.1 222.9 91 224C89.24 225.76 89.16 226.27 90.35 228.25C91.1 229.49 93.23 231.53 95.1 232.8C96.97 234.06 99.4 234.96 100.49 234.8C101.59 234.63 103.05 233.26 103.74 231.75C104.67 229.73 105.73 229 107.75 228.99C109.26 228.98 111.51 228.75 112.75 228.49C114.5 228.11 115 228.45 115 230C115 231.72 115.45 231.91 118.25 231.35C120.04 231 126 228.49 131.5 225.79C140.27 221.47 142.67 220.75 151 219.9C156.22 219.37 164.32 218.28 169 217.48C173.68 216.68 181.55 214.86 186.5 213.43C191.45 212 196.85 209.82 198.5 208.59C200.15 207.35 202.11 205.03 202.85 203.42C203.59 201.81 203.93 199.26 203.6 197.75L203 195C186.34 195.15 177.22 195.84 172 196.64Z" />
		<path id="Path 3" class="shp1" d="M185.12 199.55C183.8 200.41 182.79 201.54 182.87 202.06C182.94 202.58 184.35 202.32 186 201.5C187.65 200.68 189 199.55 189 199C189 198.45 188.66 198 188.25 197.99C187.84 197.99 186.43 198.69 185.12 199.55ZM142 206.65C139.67 207.7 139 208.39 140 208.71C140.82 208.97 142.63 208.66 144 208.01C145.38 207.37 147.85 207.13 149.5 207.47C151.15 207.82 153.74 207.86 155.25 207.55C156.76 207.25 158 206.55 158 206C158 205.44 155.28 205.02 151.75 205.04C148.3 205.06 143.93 205.78 142 206.65Z" />
		<path id="Path 4" class="shp0" d="M223.5 207.55C224.6 208.37 226.29 209.7 227.25 210.52C228.21 211.33 229.22 212 229.5 212C229.78 212 230.01 211.44 230.03 210.75C230.05 210.06 229.26 208.72 228.28 207.78C227.3 206.83 225.38 206.05 224 206.06C221.56 206.06 221.55 206.1 223.5 207.55Z" />
		<path id="Path 5" class="shp1" d="M128.17 213.75C128.4 214.92 129.6 215.58 131.76 215.75C133.54 215.89 135.01 215.66 135.02 215.25C135.03 214.84 134.46 213.93 133.77 213.23C133.07 212.54 131.45 211.97 130.16 211.98C128.47 212 127.92 212.49 128.17 213.75ZM121.48 217.75C119.92 219.4 120.09 219.63 124.41 221.75C126.93 222.99 129.45 224 130 224C130.55 224 131 223.32 131 222.5C131 221.68 129.76 219.86 128.25 218.47C126.74 217.07 124.97 215.95 124.32 215.97C123.67 215.98 122.4 216.79 121.48 217.75Z" />
		<path id="Path 6" class="shp0" d="M187 218.94C186.18 219.42 182.57 220.33 179 220.96C175.43 221.59 171.04 222.53 169.25 223.05C167.46 223.57 166 224.34 165.99 224.75C165.99 225.16 167.23 226.32 168.74 227.32L171.5 229.14C165.3 228.38 162.04 227.89 160.25 227.58C157.57 227.1 156.91 227.35 156.5 229C156.08 230.67 155.17 231 151 231C146.68 231 146.08 231.24 146.6 232.75C147.04 234.02 146.16 235.17 143.35 236.96C140.51 238.77 138.05 239.44 134 239.48C129.08 239.54 128.47 239.79 128.25 241.78C128.11 243 129.13 246.25 130.5 249C132.8 253.61 132.88 254.2 131.5 256.5C130.43 258.28 129.13 259 127 259C125.35 259 122.88 259.45 121.5 260C120.13 260.55 118.77 262.01 118.49 263.25C118.21 264.49 117.08 265.84 115.99 266.25C114.51 266.81 114.16 267.58 114.62 269.25C114.96 270.49 115.97 272.28 116.87 273.24C117.77 274.2 119.63 274.9 121 274.79C122.38 274.68 124.51 274.91 125.75 275.3C127.65 275.89 127.92 275.69 127.5 274C127.22 272.9 127.45 272 128 272C128.55 272 129.22 272.45 129.5 273C129.78 273.55 130.45 274 131 274C131.55 274 131.78 273.1 131.5 272C131.07 270.29 131.29 270.14 133 271C134.33 271.67 135.17 271.67 135.5 271C135.78 270.45 135.1 269.55 134 269C132.9 268.45 132 267.32 132 266.5C132 265.19 132.41 265.21 135.25 266.62C137.04 267.51 139.52 269.19 140.78 270.37C142.03 271.54 143.04 272.84 143.03 273.25C143.01 273.66 141.88 273.77 140.5 273.5C138.16 273.03 138.04 273.2 138.61 276.25C139.01 278.39 138.75 279.93 137.86 280.75C137.11 281.44 135.71 281.78 134.75 281.5C133.79 281.23 133 280.55 133 280C133 279.45 132.66 279 132.25 279C131.84 279 131.61 282.82 131.75 287.5C131.96 294.5 131.74 296 130.5 296C129.68 296 128.32 294.99 127.49 293.75C126.66 292.51 125.99 290.04 125.99 288.25C126 286.03 126.48 285 127.5 285C128.32 285 129 284.55 129 284C129 283.45 127.99 281.8 126.75 280.34C125.22 278.54 123.94 277.9 122.75 278.34C121.79 278.7 119.88 280.57 118.5 282.5L116 286C124.06 293.43 124.37 294.05 123.25 295.92C122.14 297.76 122.3 298.14 124.62 299.25C126.07 299.94 128.09 302.19 129.12 304.25C130.16 306.31 130.98 308.56 130.96 309.25C130.93 309.94 131.78 311.63 132.83 313L134.74 315.5L140.74 310.5C132.42 303.14 130 300.55 130 300C130 299.45 131.24 299 132.75 298.99C135.44 298.99 135.49 298.88 135.17 293.74C134.88 289.29 135.15 288.31 136.92 287.25C138.96 286.02 138.99 286.11 138.34 292.25C137.84 297.08 138.01 298.69 139.09 299.36C140.07 299.95 141.42 299.26 143.5 297.12C145.15 295.42 147.18 294.03 148 294.02C148.82 294.01 151.01 296.14 152.86 298.75C155.18 302.04 156.01 304.11 155.56 305.5C154.98 307.26 154.38 307.41 150.45 306.75C148 306.34 146.01 306.34 146.02 306.75C146.03 307.16 148.1 309.3 150.63 311.5C154.62 314.98 155.34 316.21 156.13 321C156.63 324.02 157.59 327.11 158.27 327.85C158.95 328.59 160.74 329.04 162.25 328.85C164.21 328.6 165.14 329 165.5 330.25C165.77 331.21 166.45 332 167 332C167.55 332 168.01 331.44 168.02 330.75C168.02 330.06 168.44 328.82 168.93 328C169.73 326.67 170.18 326.67 172.97 328C174.71 328.84 176.74 330.94 177.55 332.75C178.35 334.54 178.98 336.34 178.96 336.75C178.93 337.16 179.63 338.18 180.5 339C181.92 340.34 182.08 340.31 182.04 338.75C182.02 337.79 181.1 335.2 180 333C178.9 330.8 178.34 328.79 178.75 328.53C179.16 328.28 180.89 329.52 182.6 331.28C184.3 333.05 186.44 335.63 187.36 337C188.27 338.38 189.01 340.74 189.01 342.25C189 344.16 188.31 345.28 186.75 345.92C185.51 346.42 183.6 347.14 182.5 347.5C180.71 348.1 180.96 348.57 185 352.05C187.53 354.23 191.36 356.38 193.75 356.96C196.41 357.61 198.94 359.12 200.5 361C201.88 362.65 203.28 365.01 203.62 366.25C203.96 367.49 203.96 369.29 203.62 370.25C203.25 371.28 201.98 372 200.5 372C199.13 372 195.07 370.43 191.5 368.5C187.93 366.57 184.21 364.98 183.25 364.96C181.69 364.92 181.66 365.08 183 366.51C183.82 367.38 188.78 369.94 194 372.19C199.22 374.44 208.34 378.7 214.25 381.64C223.04 386.02 226.57 388.5 233.6 395.25L242.2 403.5C237.78 404.65 234.93 404.71 233 404.38C231.07 404.05 228.49 403.15 227.25 402.39C225.55 401.34 225.25 400.63 226 399.5C226.7 398.45 226.63 397.88 225.75 397.58C225.06 397.35 223.38 396.9 222 396.58C220.63 396.26 219.18 396.34 218.78 396.75C218.39 397.16 218.66 398.63 219.39 400C220.12 401.38 222.69 403.33 225.11 404.35C227.52 405.37 232.99 406.5 237.26 406.85C241.52 407.21 245.01 407.73 245.02 408C245.02 408.27 244.34 409.51 243.51 410.75C242.68 411.99 242.45 413 243 413C243.55 413 243.78 413.9 243.5 415C243.14 416.45 243.75 417.38 245.75 418.38C247.26 419.14 249.96 419.59 251.75 419.38C254.61 419.05 255.33 419.49 257.75 423.04C259.26 425.26 261.06 427.06 261.75 427.04C262.44 427.02 264.35 425.88 266 424.5C268.22 422.65 269 422.39 269 423.5C269 424.32 269.34 425 269.75 425.01C270.16 425.01 271.63 424.23 273 423.26C274.76 422.03 277.27 421.54 281.5 421.62C286.1 421.7 289.71 422.66 297 425.74C302.23 427.95 308.07 430.07 310 430.45C311.93 430.83 315.75 431.84 318.5 432.69C322.49 433.93 324.26 434.02 327.25 433.12C329.31 432.51 331 431.55 331 431C331 430.45 329.09 429.53 326.75 428.95C324.41 428.37 320.14 427.24 317.25 426.45C313.54 425.42 311.85 424.41 311.5 423C311.08 421.32 310.16 421 305.75 420.99C301.82 420.98 299.24 420.26 295.5 418.13C292.75 416.56 289.15 413.72 287.5 411.82C285.35 409.33 282.8 407.85 278.5 406.57C275.2 405.59 269.57 403.31 266 401.5C262.43 399.69 257.7 396.76 255.5 394.99C253.3 393.23 250.26 390.03 248.75 387.89C247.24 385.75 246.25 383.44 246.55 382.75C246.86 382.06 245.01 379.25 242.45 376.5C239.9 373.75 235.26 367.64 232.15 362.93C229.04 358.21 224.57 352.14 222.22 349.43C219.4 346.19 217.94 345.1 217.97 346.25C217.98 347.21 217.66 348 217.25 348C216.84 348 215.94 346.65 215.25 345C214.56 343.35 212.76 341.34 211.25 340.53C209.74 339.72 208.15 339.39 207.72 339.78C207.29 340.18 206.96 339.71 206.97 338.75C206.99 337.79 208.24 335.88 209.75 334.51C211.9 332.56 212.24 331.75 211.31 330.76C210.65 330.07 208.93 325.45 207.49 320.5C206.05 315.55 203.99 307.68 202.91 303C201.84 298.32 200.71 293.82 200.4 293C199.97 291.84 199.29 292.19 197.43 294.5L195.01 297.5C195.03 292.85 195.36 290.92 195.77 290.21C196.17 289.5 197.18 289.05 198 289.21C199 289.4 199.58 288.58 199.75 286.75C199.92 284.86 199.53 284 198.5 284C197.27 284 197.12 283.04 197.66 278.75C198.02 275.86 197.94 272.6 197.49 271.5C197.04 270.4 196.64 264.63 196.59 258.67C196.51 249.67 196.21 247.65 194.8 246.67C193.34 245.67 193.26 244.92 194.18 241.5C194.78 239.3 195.32 234.33 195.38 230.46C195.47 225.3 195.03 222.69 193.75 220.71C192.79 219.22 191.21 218.01 190.25 218.03C189.29 218.05 187.82 218.46 187 218.94Z" />
		<path id="Path 7" class="shp1" d="M186.66 234.75C185.9 236.26 185.02 239.3 184.71 241.5C184.39 243.7 184.56 246.51 185.07 247.75C185.58 248.99 186.68 250 187.5 250C188.32 250 189.89 248.09 190.98 245.75C192.07 243.41 192.97 240.49 192.98 239.25C192.99 238.01 192.55 237.22 192 237.5C191.45 237.78 191 238.9 191 240C191 241.1 190.55 242.22 190 242.5C189.37 242.82 189.18 240.99 189.5 237.5C189.79 234.26 189.59 232 189.02 232C188.48 232 187.42 233.24 186.66 234.75Z" />
		<path id="Path 8" class="shp0" d="M116.15 243.87C116.07 244.49 117.24 245.54 118.75 246.19L121.5 247.39C117.24 247.86 116.22 248.45 116.5 249C116.78 249.55 118.24 250.01 119.75 250.03C121.26 250.05 123.4 249.14 124.5 248.01C125.81 246.66 126.15 245.63 125.5 245.03C124.95 244.52 122.66 243.8 120.4 243.42C117.65 242.97 116.25 243.12 116.15 243.87ZM101.96 248.75C101.93 249.16 102.61 250.06 103.46 250.75C104.69 251.75 105.31 251.75 106.54 250.75C107.39 250.06 108.07 249.16 108.04 248.75C108.02 248.34 106.65 248 105 248C103.35 248 101.98 248.34 101.96 248.75Z" />
		<path id="Path 9" class="shp1" d="M145.03 252.99C145.01 255.38 145.77 256.51 148.75 258.46C150.81 259.81 152.84 260.71 153.25 260.46C153.66 260.21 153.55 259.32 153 258.5C152.45 257.68 152.11 256.51 152.25 255.91C152.39 255.31 150.82 253.72 148.78 252.39L145.05 249.97L145.03 252.99ZM141 261C141 261.55 140.1 261.77 139 261.5C137.79 261.2 137.01 261.5 137.03 262.25C137.05 262.94 137.75 264.4 138.59 265.5C139.43 266.6 142.23 268.29 144.81 269.25C147.39 270.21 150.4 270.99 151.5 270.97C153.17 270.95 152.92 270.46 150 267.99C148.07 266.37 145.71 264.81 144.75 264.52C143.79 264.23 143 263.55 143 263C143 262.45 143.56 261.99 144.25 261.98C144.94 261.97 146.96 262.64 148.75 263.48C150.54 264.32 152.56 264.83 153.25 264.62C153.94 264.41 152.47 263.29 150 262.14C147.53 260.99 144.49 260.03 143.25 260.02C142.01 260.01 141 260.45 141 261ZM179.4 280.23C178.97 280.93 178.6 284.01 178.56 287.07C178.51 291.59 179.05 293.49 181.38 297.07C184.14 301.31 184.32 301.42 185.65 299.5C186.41 298.4 187.03 296.49 187.02 295.25C187.01 294.01 186.55 292.77 186 292.5C185.45 292.22 185.27 290.54 185.59 288.75C186.08 286.06 185.82 285.37 184.09 284.75C182.88 284.32 182.04 283.18 182.1 282.06C182.16 280.99 181.75 279.86 181.19 279.54C180.63 279.23 179.82 279.54 179.4 280.23Z" />
		<path id="Path 10" class="shp0" d="M96.23 282.63C96.1 283.11 96.44 285.07 96.97 287L97.95 290.5C92.7 284.49 91.97 284.07 92.33 285.5C92.6 286.6 95.58 293.57 98.95 301C102.32 308.43 106.03 315.4 107.18 316.5L109.28 318.5C108.12 315.4 106.87 311.8 105.76 308.5C104.65 305.2 103.36 302.05 102.9 301.5C102.44 300.95 102.31 299.38 102.61 298C102.91 296.63 102.25 293.02 101.14 290C100.03 286.98 98.53 283.88 97.8 283.13C97.06 282.37 96.36 282.15 96.23 282.63Z" />
		<path id="Path 11" class="shp1" d="M155.69 285.65L156.16 288.5L151.84 283.5C152.75 289.7 154.14 293.86 155.51 296.75C156.88 299.64 158.67 302 159.5 302C160.32 302 161.22 301.55 161.5 301C161.78 300.45 163.01 300.28 164.25 300.62C165.5 300.97 166.17 300.86 165.75 300.37C165.33 299.89 165.67 298.71 166.5 297.75C167.87 296.15 167.54 295.46 162.75 289.83C159.86 286.44 156.99 283.47 156.36 283.23C155.62 282.95 155.39 283.79 155.69 285.65Z" />
		<path id="Path 12" class="shp0" d="M147.52 314.12C147.86 315.43 148.33 317.29 148.57 318.25C148.8 319.21 148.44 320.27 147.75 320.59C147.06 320.92 143.57 320.04 140 318.65C135.8 317.01 133.15 316.45 132.5 317.08C131.84 317.72 132.18 319.24 133.5 321.6C135.15 324.54 137.46 326.1 146.75 330.58C152.94 333.56 158.45 336 159 336C159.55 336 160 335.66 159.99 335.25C159.99 334.84 159.2 333.35 158.24 331.95C157.28 330.54 155.49 328.4 154.25 327.2C153.01 325.99 151.74 323.31 151.42 321.25C151.1 319.19 150.49 316.38 150.07 315C149.65 313.63 148.76 312.33 148.1 312.12C147.29 311.86 147.1 312.51 147.52 314.12ZM103.02 317.75C103.04 318.16 104.99 322.55 107.35 327.5C109.72 332.45 115.9 342.8 121.09 350.5C126.28 358.2 132.03 367.2 133.87 370.5C135.72 373.8 139.56 379.65 142.42 383.5C145.27 387.35 149.82 392.3 152.51 394.5C155.21 396.7 160.13 401.05 163.46 404.18C166.78 407.3 170.74 410.33 172.25 410.93C173.76 411.52 175.9 412 177 412C178.11 412 179 411.33 179 410.5C179 409.68 177.31 407.66 175.25 406.02C173.19 404.38 170.38 402.78 169 402.45C167.63 402.13 164.81 400.21 162.73 398.18C160.66 396.16 158.98 393.71 158.98 392.75C158.99 391.73 158.27 391.01 157.25 391.03C156.29 391.04 154.54 390.03 153.37 388.78C152.2 387.52 150.63 385.27 149.87 383.78C149.12 382.28 146.48 380.03 144.01 378.78C139.88 376.68 139.31 375.91 136.8 369C134.97 363.94 133.01 360.52 130.77 358.5C128.94 356.85 126.95 354.38 126.34 353C125.73 351.63 122.72 347.35 119.64 343.5C116.56 339.65 113.39 335.15 112.61 333.5C111.82 331.85 109.79 327.46 108.09 323.75C106.39 320.04 104.55 317 104 317C103.45 317 103.01 317.34 103.02 317.75Z" />
		<path id="Path 13" class="shp1" d="M202.98 325.25C202.97 325.39 203.42 326.96 203.98 328.75C204.54 330.54 205.45 332 206 332C206.55 332 207.01 330.99 207.02 329.75C207.03 328.51 206.46 326.93 205.77 326.23C205.07 325.54 204.16 324.97 203.75 324.98C203.34 324.99 202.99 325.11 202.98 325.25Z" />
		<path id="Path 14" class="shp0" d="M155 341.5C155 342.32 154.32 343 153.5 343C152.68 343 152 343.68 152 344.5C152 345.32 151.55 345.77 151 345.5C150.45 345.23 149.78 345.34 149.52 345.75C149.25 346.16 149.95 347.4 151.06 348.5C152.18 349.6 152.84 351.06 152.54 351.75C152.24 352.44 153.35 353.9 155 355C156.65 356.1 158 357.45 158 358C158 358.55 157.1 358.77 156 358.5C154.9 358.23 154.16 358.34 154.36 358.75C154.55 359.16 159.16 361.88 164.61 364.79C170.05 367.7 174.72 369.83 175 369.52C175.28 369.22 174.97 368.41 174.31 367.73C173.66 367.06 173.34 366.05 173.6 365.5C173.86 364.95 172.92 363.38 171.51 362C170.1 360.63 168.97 358.82 168.99 358C169.01 357.18 167.56 355.65 165.76 354.6C162.85 352.91 162.69 352.59 164.22 351.6C165.58 350.73 165.68 350.23 164.72 349.2C163.75 348.16 164.01 347.51 166 346.01C167.38 344.98 168.28 343.94 168 343.69C167.72 343.45 164.91 342.51 161.75 341.62C158.59 340.73 155.78 340 155.5 340C155.22 340 155 340.68 155 341.5Z" />
		<path id="Path 15" class="shp1" d="M230.02 371.75C230.02 372.71 231.26 375.21 232.77 377.29C234.27 379.37 235.84 381.06 236.25 381.04C236.66 381.02 237.01 380.44 237.01 379.75C237.02 379.06 235.78 376.58 234.26 374.24C232.74 371.9 231.16 369.99 230.75 369.99C230.34 370 230.01 370.79 230.02 371.75Z" />
		<path id="Path 16" fill-rule="evenodd" class="shp0" d="M169.4 378.2C171.65 378.45 176.98 379.97 181.23 381.58C187.48 383.94 188.73 384.75 187.73 385.79C187.04 386.52 184.32 387.08 181.5 387.07C178.75 387.06 174.7 386.32 172.5 385.42C170.3 384.53 167.7 383.06 166.72 382.15C165.74 381.24 165.02 379.88 165.11 379.12C165.24 378.11 166.4 377.86 169.4 378.2ZM195.84 382.41C198.4 383.76 201.51 385.12 202.75 385.43C203.99 385.74 205.01 386.56 205.02 387.25C205.03 388.16 204.02 388.3 201.27 387.75C199.2 387.33 195.81 385.87 193.75 384.5C191.69 383.12 190.27 381.54 190.59 380.98C190.96 380.35 192.97 380.89 195.84 382.41ZM201.15 380.01C202.44 380.01 204.85 380.7 206.5 381.54C208.15 382.38 210.29 383.05 211.25 383.03C212.21 383.01 213.22 383.45 213.5 384C213.78 384.55 212.99 385.01 211.75 385.01C210.51 385.02 207.36 384.34 204.75 383.51C202.14 382.68 199.73 381.55 199.4 381C199.06 380.45 199.84 380 201.15 380.01ZM203.76 399.73C205.96 400.6 207.82 401.69 207.88 402.15C207.95 402.62 206.76 402.74 205.25 402.42C203.74 402.1 201.92 401.31 201.21 400.67C200.49 400.03 199.88 399.2 199.84 398.83C199.8 398.46 201.56 398.87 203.76 399.73ZM194.75 421.99C195.44 421.99 199.71 423.93 204.25 426.28C208.79 428.64 220.6 433.78 230.5 437.7C246.13 443.9 250.08 445.06 260.5 446.51C267.32 447.46 276.82 448.05 282.5 447.87C288 447.7 293.18 447.97 294 448.45C294.82 448.94 301.35 449.27 308.5 449.18C315.65 449.09 322.18 449.44 323 449.96C324.27 450.75 324.2 451.02 322.5 451.7C321.4 452.14 312.85 452.48 303.5 452.46C291.37 452.43 282.06 451.77 271 450.18C262.48 448.95 251.22 447.22 246 446.35C240.78 445.48 232.22 443.28 227 441.45C221.78 439.63 215.25 437.21 212.5 436.06C209.75 434.91 207.72 433.75 208 433.47C208.28 433.2 209.85 433.43 211.5 434C213.15 434.57 214.62 434.91 214.76 434.76C214.91 434.62 210.86 432.32 205.76 429.65C200.67 426.98 195.82 424.16 195 423.39C193.94 422.39 193.87 421.98 194.75 421.99ZM286.98 426C288.62 426 289 426.66 289 429.5C289 432 288.43 433.29 287 434C285.9 434.55 284.77 435 284.5 435C284.23 435 284 434.32 284 433.5C284 432.68 283.77 432 283.5 432C283.23 432 282.12 432.56 281.05 433.25C279.97 433.94 278.74 434.13 278.3 433.67C277.86 433.21 279.18 431.3 281.23 429.42C283.29 427.54 285.88 426 286.98 426ZM349 428.16C350.38 428.09 356 428.7 361.5 429.51C367 430.31 371.73 431.2 372 431.47C372.27 431.75 371.38 432.38 370 432.87C368.63 433.37 362.32 433.57 356 433.33C349.68 433.09 343.49 432.69 342.25 432.44C340.49 432.1 340.23 431.69 341.06 430.56C341.65 429.77 343.11 428.93 344.31 428.7C345.52 428.46 347.63 428.22 349 428.16ZM415.75 430.17C416.99 430.08 418.01 430.34 418.02 430.75C418.04 431.16 416.57 431.84 414.77 432.26C412.97 432.68 410.26 433.02 408.75 433.01C407.24 433.01 406 432.55 406 432C406 431.45 407.69 430.85 409.75 430.67C411.81 430.49 414.51 430.26 415.75 430.17ZM238 437.04C238.82 437.02 241.07 437.43 243 437.93C244.93 438.44 249.15 439.37 252.39 440C255.62 440.63 258.21 441.56 258.14 442.07C258.06 442.58 257.1 443 256 443C254.9 443 250.96 442.33 247.25 441.5C243.54 440.68 239.6 439.35 238.5 438.54C237.01 437.44 236.88 437.06 238 437.04Z" />
		<path id="Path 17" class="shp2" d="M7.48 560.25C7.18 561.49 7.06 602.1 7.22 650.5L7.5 738.5C11.76 747.35 14.89 751.36 18.15 754.26C21.09 756.88 26.42 760.54 30 762.39C33.58 764.24 40.77 767.15 46 768.85C51.23 770.56 59.33 772.85 64 773.95C68.67 775.04 80.6 777.27 90.5 778.89C100.4 780.52 115.92 782.77 125 783.91C134.07 785.05 149.6 786.65 159.5 787.48C169.4 788.31 188.07 789.44 201 789.99C213.93 790.54 241.82 791 263 791C284.18 791 312.07 790.54 325 789.98C337.93 789.43 356.6 788.31 366.5 787.49C376.4 786.68 391.93 785.09 401 783.97C410.07 782.85 424.25 780.84 432.5 779.52C440.75 778.19 452.9 775.94 459.5 774.51C466.1 773.09 476.23 770.34 482 768.41C487.77 766.49 495.43 763.19 499 761.08C502.57 758.98 507.76 754.83 510.52 751.88C513.59 748.6 516.23 744.55 517.29 741.5C518.88 736.9 519.02 729.51 519.01 648.75C519.01 600.49 518.77 560.33 518.5 559.5C518.06 558.17 488.78 558 263.02 558L8.03 558L7.48 560.25Z" />
		<path id="Path 18" class="shp0" d="M187.5 613.17C180.3 616.78 177.57 618.64 177.75 619.84C177.89 620.75 179.68 622.4 181.73 623.5C183.78 624.6 186.02 626.63 186.71 628C187.66 629.88 187.97 640.21 187.99 669.75C187.99 691.34 187.61 709.79 187.13 710.75C186.65 711.71 184.84 713.17 183.09 714C180.89 715.04 179.93 716.18 179.96 717.75L180 720C205.96 719.24 213.85 718.67 214.27 718.26C214.7 717.84 214.82 716.83 214.53 716C214.25 715.17 212.22 714.16 210.01 713.75C207.8 713.34 204.88 711.88 203.5 710.5L201 708C201.45 612.51 201.35 609.17 199.73 608.61C198.78 608.27 197.89 608.04 197.75 608.08C197.61 608.13 193 610.42 187.5 613.17ZM364.28 612.84C357.99 616.02 355.04 618.06 355.03 619.25C355.01 620.25 356.18 621.46 357.75 622.07C359.26 622.65 361.52 624.12 362.78 625.32L365.05 627.5C365.01 690.66 364.66 709.73 364.25 710.63C363.84 711.52 362.04 712.87 360.25 713.63C357.79 714.67 357.06 715.55 357.25 717.25C357.47 719.23 358.06 719.5 362.25 719.5C364.86 719.5 372.63 719.39 379.5 719.25C391.25 719.01 392 718.88 392 717C392 715.8 391 714.6 389.5 714C388.13 713.45 385.99 713.01 384.75 713.02C383.51 713.03 381.66 712.46 380.64 711.77C379.34 710.88 378.61 708.83 378.25 705C377.96 701.98 378.01 698.26 378.36 696.75C378.76 695.05 380.41 693.14 382.67 691.75L386.34 689.5C388.79 693.33 391.93 697.83 394.9 701.97C397.86 706.11 402.36 711.87 404.9 714.77L409.5 720.04C418.8 719.86 423.98 719.51 427 719.15C432.02 718.56 432.5 718.28 432.5 716.01C432.5 713.79 431.96 713.44 427.5 712.77C424.75 712.35 421.49 711.34 420.25 710.51C419.01 709.68 416.2 707.2 414 705C411.8 702.8 407.27 697.29 403.92 692.75C400.58 688.21 397.6 683.38 397.29 682C396.83 679.95 397.52 678.83 401.12 675.8C403.53 673.76 407.52 670.96 410 669.57C412.48 668.19 417.2 666.59 420.5 666.02C423.8 665.45 426.95 664.52 427.5 663.96C428.17 663.28 428.13 662.37 427.39 661.22C426.44 659.74 423.96 659.43 409.89 659C399.71 658.69 393 658.88 392.19 659.5C391.46 660.05 391.01 661.13 391.19 661.91C391.36 662.69 393.26 663.81 395.41 664.41C397.57 665.01 399.48 666.06 399.66 666.75C399.85 667.44 398.76 669.19 397.25 670.64C395.74 672.1 391.24 675.92 387.25 679.14C383.26 682.36 379.55 685 379 685C378.36 685 377.91 671.42 377.75 646.75C377.51 609.31 377.46 608.5 375.5 608.34C374.4 608.25 369.35 610.27 364.28 612.84ZM94.25 616.92C93.93 617.15 93.74 618.16 93.83 619.17C93.92 620.17 95.24 621.63 96.75 622.4C98.26 623.18 100.63 625.01 102 626.49L104.5 629.16C104.5 707.04 104.46 707.91 102.38 710.68C101.21 712.23 98.85 713.84 97.13 714.25C94.72 714.83 94.06 715.48 94.25 717.12C94.49 719.19 94.93 719.24 113.79 719.37C129.96 719.48 133.22 719.26 133.98 718C134.56 717.04 134.45 716.04 133.69 715.22C133.04 714.52 130.47 713.68 128 713.36C125.53 713.04 122.49 712.16 121.25 711.39C119.04 710.03 119 709.64 119 690.5L119 671C137.4 671.46 139.25 671.81 140.94 673.5C142.04 674.6 143.56 677.3 144.31 679.5C145.29 682.33 146.32 683.57 147.85 683.75C149.04 683.89 150 683.44 150 682.75C150 682.06 150.25 676.33 150.55 670C150.86 663.67 151.2 657.16 151.3 655.53C151.45 653.26 151.03 652.47 149.5 652.18C148.35 651.97 146.96 652.6 146.23 653.66C145.54 654.67 144.98 656.4 145 657.5C145.02 658.6 144.46 660.26 143.77 661.19C142.77 662.51 139.96 663.05 130.74 663.69L118.99 664.5L119 625C124.81 624.22 131.74 624.33 138.14 624.75C147.66 625.36 150.18 625.86 152.03 627.5C153.27 628.6 155.13 631.41 156.15 633.75C157.62 637.13 158.46 637.95 160.25 637.75C162.36 637.52 162.55 636.88 163.23 627.5C163.64 622 163.86 617.39 163.73 617.26C163.61 617.13 148.05 616.9 129.17 616.76C110.28 616.62 94.57 616.69 94.25 616.92ZM247 658.89C243.97 659.86 239.7 661.6 237.5 662.73C235.3 663.87 232.47 665.86 231.21 667.15C229.65 668.75 229.02 670.45 229.21 672.48C229.42 674.6 230.22 675.73 232 676.4C233.75 677.05 235.54 676.9 237.94 675.91C240.15 675 242.34 672.9 244.07 670C245.56 667.52 247.5 665.16 248.39 664.75C249.27 664.34 251.8 664.45 254 665C256.92 665.73 258.4 666.81 259.5 669C260.32 670.65 261.02 674.36 261.04 677.25C261.07 680.3 260.55 683.02 259.79 683.74C259.08 684.42 254.9 685.88 250.5 687C246.1 688.11 239.57 690.48 236 692.26C231.78 694.36 228.68 696.73 227.16 699C225.24 701.88 224.91 703.38 225.33 707.5C225.75 711.57 226.52 713.15 229.45 716C232.64 719.11 233.74 719.54 239.27 719.87C244.45 720.17 246.8 719.71 253.25 717.12L261 714C266.43 718.65 268.56 720.01 269.25 720.02C269.94 720.03 272.07 719.5 274 718.85C275.93 718.2 279.19 716.62 281.25 715.33C284.01 713.62 284.93 712.41 284.75 710.75C284.53 708.74 284.02 708.53 280 708.78C277.34 708.94 274.97 708.53 274.21 707.78C273.23 706.82 272.92 701.73 272.96 687.25C272.99 672.28 272.67 667.22 271.5 664.5C270.44 662.03 268.75 660.42 265.75 659.02C263.41 657.93 259.48 657.06 257 657.08C254.53 657.09 250.03 657.91 247 658.89ZM312 658.31C310.07 658.98 307.26 660.31 305.75 661.26C304.24 662.22 302.11 664.91 301.02 667.25C299.93 669.59 299.04 672.85 299.04 674.5C299.04 676.15 299.85 679.3 300.83 681.5C302.07 684.26 304.16 686.45 307.56 688.56C310.28 690.25 315.65 693.09 319.5 694.87C323.35 696.66 327.52 699.11 328.78 700.31C330.18 701.66 331.04 703.65 331.01 705.5C330.99 707.15 330.64 709 330.23 709.6C329.83 710.21 328.49 711.22 327.25 711.85C326.01 712.48 322.86 712.97 320.25 712.92C317.64 712.88 314.07 712.32 312.32 711.67C310.57 711.03 308.09 709.59 306.82 708.48C305.54 707.36 303.6 705.16 302.5 703.58C301.09 701.55 299.98 700.89 298.75 701.35C297.27 701.9 297.04 703.12 297.25 709.25L297.5 716.5C303.7 718.63 310.23 719.48 316 719.77C325.62 720.26 326.96 720.09 332 717.84C335.38 716.33 338.45 714.06 339.97 711.94C341.72 709.51 342.54 706.89 342.76 703C343.01 698.7 342.58 696.63 340.79 693.5C338.8 690.02 336.87 688.69 326 683.33C319.13 679.94 312.69 676.11 311.71 674.83C310.72 673.55 309.92 671.6 309.92 670.5C309.93 669.4 310.74 667.7 311.72 666.71C312.7 665.73 315.52 664.65 318 664.31C321.41 663.85 323.59 664.2 327 665.78C329.5 666.93 332.61 669.44 334 671.42C335.6 673.7 337.31 674.99 338.75 674.99C339.99 675 341.19 674.66 341.42 674.25C341.65 673.84 341.21 670.58 340.45 667C339.68 663.42 338.71 660.16 338.28 659.74C337.85 659.31 335.7 658.54 333.5 658.01C331.3 657.48 326.35 657.06 322.5 657.07C318.65 657.08 313.93 657.64 312 658.31Z" />
		<path id="Path 19" class="shp2" d="M252.75 692.08C250.69 692.59 247.65 693.67 246 694.5C244.35 695.33 242.09 697.01 240.98 698.25C239.87 699.49 238.95 701.85 238.94 703.5C238.93 705.15 239.8 707.63 240.87 709C242.57 711.17 243.59 711.49 248.66 711.44C252.09 711.41 255.84 710.68 257.75 709.69L261 708C260.52 692.31 260.3 691.48 258.5 691.33C257.4 691.24 254.81 691.58 252.75 692.08Z" />
	</g>
</svg>