<svg width="24" height="24" xmlns="http://www.w3.org/2000/svg" stroke-linejoin="round" stroke-linecap="round" fill="none" stroke="currentColor" stroke-width="2" class="icon icon-tabler icon-tabler-folder-plus">

 <g>
  <title>Layer 1</title>
  <path id="svg_1" fill="none" d="m0,0l24,0l0,24l-24,0l0,-24z"/>
  <path fill="#f8d775" id="svg_2" d="m5,4l4,0l3,3l7,0a2,2 0 0 1 2,2l0,8a2,2 0 0 1 -2,2l-14,0a2,2 0 0 1 -2,-2l0,-11a2,2 0 0 1 2,-2"/>
  <line id="svg_3" y2="16" x2="12" y1="10" x1="12"/>
  <line id="svg_4" y2="13" x2="15" y1="13" x1="9"/>
 </g>
</svg>