<svg width="47.99999999999999" height="47.99999999999999" xmlns="http://www.w3.org/2000/svg" fill="none">
 <g>
  <title>Layer 1</title>
  <path d="m24,44c11.0457,0 20,-8.9543 20,-20c0,-11.0457 -8.9543,-20 -20,-20c-11.0457,0 -20,8.9543 -20,20c0,11.0457 8.9543,20 20,20z" fill="#2F88FF" stroke="#333" stroke-width="4" stroke-linecap="round" stroke-linejoin="round" id="svg_3"/>
  <path d="m33.5424,27c-1.2743,4.0571 -5.0646,7 -9.5422,7c-4.4776,0 -8.2679,-2.9429 -9.5422,-7l0,6" stroke="#FFF" stroke-width="4" stroke-linecap="round" stroke-linejoin="round" id="svg_4"/>
  <path d="m33.5424,15l0,6c-1.2743,-4.0571 -5.0646,-7 -9.5422,-7c-4.4776,0 -8.2679,2.9429 -9.5422,7" stroke="#FFF" stroke-width="4" stroke-linecap="round" stroke-linejoin="round" id="svg_5"/>
 </g>

</svg>